<?xml version="1.0" encoding="utf-8"?>
<!-- Generator: Adobe Illustrator 22.1.0, SVG Export Plug-In . SVG Version: 6.00 Build 0)  -->
<svg version="1.1" id="Layer_1" xmlns="http://www.w3.org/2000/svg" xmlns:xlink="http://www.w3.org/1999/xlink" x="0px" y="0px"
	 viewBox="0 0 244 190" style="enable-background:new 0 0 244 190;" xml:space="preserve">
<style type="text/css">
	.st0{fill:#FFFFFF;}
</style>
<path class="st0" d="M182.1,19.8h-36.8c-1.9,0-3.6,1.7-3.6,3.6v93.2c0,9.6-5.6,15.4-15,15.4c-9.4,0-15-5.8-15-15.6v-93
	c0-1.9-1.5-3.6-3.6-3.6H71.4c-1.9,0-3.6,1.7-3.6,3.6v16h22.7c1.1,0,1.9,0.9,1.9,1.9c0,1.1-0.9,2-1.9,2H67.8v69.2
	c0.1,12.8,2.6,23.5,7.2,32.1c0.7,1.3,1.5,2.6,2.3,3.9h27.6c1.1,0,1.9,0.9,1.9,1.9c0,1.1-0.9,2-1.9,2H80.1c1.2,1.4,2.4,2.7,3.7,3.9
	c9.9,9.2,24.3,13.9,42.9,13.9c20.2,0,35.4-5.4,45.2-15.9c1.2-1.2,2.3-2.5,3.3-3.9h-22.5c-1.1,0-1.9-0.9-1.9-2c0-1.1,0.9-1.9,1.9-1.9
	h25.1c0.7-1.3,1.4-2.5,2.1-3.9c3.9-8.3,5.9-18.3,5.9-30.1V61.4h-23.4c-1.1,0-1.9-0.9-1.9-2c0-1.1,0.9-1.9,1.9-1.9h23.4V23.4
	C185.7,21.5,184.3,19.8,182.1,19.8z"/>
<path class="st0" d="M182.5,152.4c0,1.1-0.9,1.9-1.9,1.9H145c-1.1,0-1.9-0.9-1.9-1.9v-7.8c0-1.1,0.9-1.9,1.9-1.9h39
	c0.5,0,1,0.2,1.4,0.6c0.4,0.4,0.6,0.8,0.6,1.4c0,1.1-0.9,2-1.9,2h-31.2c-1.1,0-1.9,0.9-1.9,1.9c0,1.1,0.9,2,1.9,2h27.8
	c0.5,0,1,0.2,1.4,0.6C182.3,151.3,182.5,151.8,182.5,152.4z"/>
<path class="st0" d="M114.5,146.5v7.8c0,1.1-0.9,1.9-1.9,1.9h-39c-0.5,0-1-0.2-1.4-0.6c-0.4-0.4-0.6-0.8-0.6-1.4c0-1.1,0.9-2,2-2
	h31.2c1.1,0,1.9-0.9,1.9-2c0-1.1-0.9-1.9-1.9-1.9H68.7c-0.5,0-1-0.2-1.4-0.6c-0.4-0.4-0.6-0.8-0.6-1.4c0-1.1,0.9-1.9,1.9-1.9h43.9
	C113.7,144.6,114.5,145.5,114.5,146.5z"/>
<path class="st0" d="M100.2,37.5v7.8c0,1.1-0.9,1.9-1.9,1.9h-39c-0.5,0-1-0.2-1.4-0.6c-0.3-0.4-0.6-0.8-0.6-1.4c0-1.1,0.9-2,1.9-2
	h31.2c1.1,0,1.9-0.9,1.9-2c0-1.1-0.9-1.9-1.9-1.9H60.2c-0.5,0-1-0.2-1.4-0.6c-0.4-0.4-0.6-0.8-0.6-1.4c0-1.1,0.9-1.9,1.9-1.9h38
	C99.3,35.5,100.2,36.4,100.2,37.5z"/>
<path class="st0" d="M193.2,55.6c0,0.5-0.2,1-0.6,1.4c-0.4,0.3-0.8,0.6-1.4,0.6h-28.9c-1.1,0-1.9,0.9-1.9,1.9c0,1.1,0.9,2,1.9,2
	h31.2c1.1,0,1.9,0.9,1.9,2c0,0.5-0.2,1-0.6,1.4c-0.3,0.3-0.8,0.6-1.4,0.6h-39c-1.1,0-1.9-0.9-1.9-2v-7.8c0-1.1,0.9-2,1.9-2h36.7
	C192.3,53.6,193.2,54.5,193.2,55.6z"/>
<path class="st0" d="M64.1,39.4h-24c-1.1,0-1.9-0.9-1.9-1.9v0c0-1.1,0.9-1.9,1.9-1.9h24c1.1,0,1.9,0.9,1.9,1.9v0
	C66.1,38.6,65.2,39.4,64.1,39.4z"/>
<path class="st0" d="M70.2,47.2h-24c-1.1,0-1.9-0.9-1.9-1.9v0c0-1.1,0.9-1.9,1.9-1.9h24c1.1,0,1.9,0.9,1.9,1.9v0
	C72.1,46.3,71.3,47.2,70.2,47.2z"/>
<path class="st0" d="M200.3,57.5h-24c-1.1,0-1.9-0.9-1.9-1.9v0c0-1.1,0.9-1.9,1.9-1.9h24c1.1,0,1.9,0.9,1.9,1.9v0
	C202.2,56.7,201.4,57.5,200.3,57.5z"/>
<path class="st0" d="M203.9,65.3h-24c-1.1,0-1.9-0.9-1.9-1.9v0c0-1.1,0.9-1.9,1.9-1.9h24c1.1,0,1.9,0.9,1.9,1.9v0
	C205.8,64.5,204.9,65.3,203.9,65.3z"/>
<path class="st0" d="M191.9,146.5h-24c-1.1,0-1.9-0.9-1.9-1.9l0,0c0-1.1,0.9-1.9,1.9-1.9h24c1.1,0,1.9,0.9,1.9,1.9l0,0
	C193.8,145.6,192.9,146.5,191.9,146.5z"/>
<path class="st0" d="M202,154.3h-24c-1.1,0-1.9-0.9-1.9-1.9l0,0c0-1.1,0.9-1.9,1.9-1.9h24c1.1,0,1.9,0.9,1.9,1.9l0,0
	C204,153.4,203.1,154.3,202,154.3z"/>
<path class="st0" d="M74,156.3h-24c-1.1,0-1.9-0.9-1.9-1.9l0,0c0-1.1,0.9-1.9,1.9-1.9h24c1.1,0,1.9,0.9,1.9,1.9l0,0
	C76,155.4,75.1,156.3,74,156.3z"/>
<path class="st0" d="M81.2,148.5h-24c-1.1,0-1.9-0.9-1.9-1.9l0,0c0-1.1,0.9-1.9,1.9-1.9h24c1.1,0,1.9,0.9,1.9,1.9l0,0
	C83.2,147.6,82.3,148.5,81.2,148.5z"/>
</svg>
