<?xml version="1.0" encoding="utf-8"?>
<!-- Generator: Adobe Illustrator 22.1.0, SVG Export Plug-In . SVG Version: 6.00 Build 0)  -->
<svg version="1.1" id="Layer_1" xmlns="http://www.w3.org/2000/svg" xmlns:xlink="http://www.w3.org/1999/xlink" x="0px" y="0px"
	 viewBox="0 0 238 129" style="enable-background:new 0 0 238 129;" xml:space="preserve">
<style type="text/css">
	.st0{fill:#FFFFFF;}
</style>
<circle class="st0" cx="104.2" cy="43.1" r="2.7"/>
<circle class="st0" cx="164.2" cy="101.5" r="1.1"/>
<circle class="st0" cx="199.4" cy="98.8" r="4.1"/>
<circle class="st0" cx="122.4" cy="105.4" r="7"/>
<circle class="st0" cx="138.5" cy="32.6" r="7.2"/>
<path class="st0" d="M179.5,53.3h-65.1c-0.7,0-1.2-0.5-1.2-1.2v0c0-0.7,0.5-1.2,1.2-1.2h65.1c0.7,0,1.2,0.5,1.2,1.2v0
	C180.7,52.7,180.1,53.3,179.5,53.3z"/>
<path class="st0" d="M93.8,103.9H28.8c-0.7,0-1.2-0.5-1.2-1.2l0,0c0-0.7,0.5-1.2,1.2-1.2h65.1c0.7,0,1.2,0.5,1.2,1.2l0,0
	C95.1,103.3,94.5,103.9,93.8,103.9z"/>
<path class="st0" d="M207.7,24.4L207.7,24.4c-0.3-0.1-0.7-0.1-1-0.1c0,0,0,0,0,0c-0.1-0.3-0.2-0.6-0.4-1l0,0
	c-2.2-4.4-8.5-4.4-10.7,0l0,0c-0.2,0.3-0.3,0.6-0.4,0.9c0,0,0,0,0,0c-0.3,0-0.7,0-1,0.1h0c-4.8,0.8-6.7,6.7-3.3,10.2l0,0
	c0.2,0.3,0.5,0.5,0.8,0.7c0,0,0,0,0,0c-0.1,0.3-0.2,0.7-0.2,1v0c-0.7,4.8,4.3,8.5,8.7,6.3l0,0c0.3-0.2,0.6-0.3,0.9-0.5c0,0,0,0,0,0
	c0.3,0.2,0.6,0.4,0.9,0.5h0c4.4,2.2,9.4-1.5,8.7-6.3v0c-0.1-0.3-0.1-0.7-0.2-1c0,0,0,0,0,0c0.3-0.2,0.5-0.4,0.8-0.7l0,0
	C214.4,31.1,212.5,25.2,207.7,24.4z"/>
</svg>
