<?xml version="1.0" encoding="utf-8"?>
<!-- Generator: Adobe Illustrator 22.1.0, SVG Export Plug-In . SVG Version: 6.00 Build 0)  -->
<svg version="1.1" id="Layer_1" xmlns="http://www.w3.org/2000/svg" xmlns:xlink="http://www.w3.org/1999/xlink" x="0px" y="0px"
	 viewBox="0 0 227.3 200" style="enable-background:new 0 0 227.3 200;" xml:space="preserve">
<style type="text/css">
	.st0{fill:#FFFFFF;}
</style>
<path class="st0" d="M149.1,133.3h15.5c1.4,0,2.6-1.2,2.6-2.6V37.1c0-1.6-1.2-3-3-3h-35.7c-1.4,0-2.8,1.4-2.8,3v52.2
	c0,2.7-3.6,3.6-4.9,1.3l-30-53.9c-0.8-1.6-2.8-2.6-4.6-2.6H51.6c-1.7,0-3,1.4-3,3v46.8c0,1.4,1.2,2.6,2.6,2.6h17.7
	c1.3,0,2.5,1,2.6,2.3c0.1,1.4-1,2.5-2.4,2.5H51.2c-1.4,0-2.6,1.2-2.6,2.6v76.3c0,1.4,1.2,2.8,2.8,2.8h35.6c1.8,0,3-1.4,3-2.8v-52.5
	c0-2.7,3.5-3.6,4.9-1.3l30.2,54c1,1.6,2.8,2.6,4.2,2.6h34.8c1.8,0,3-1.4,3-2.8v-29.5c0-1.4-1.2-2.6-2.6-2.6H149
	c-1.4,0-2.5-1.1-2.4-2.5C146.6,134.3,147.8,133.3,149.1,133.3z"/>
<path class="st0" d="M81,84.1v9.7c0,1.3-1.1,2.4-2.4,2.4H45.1c-0.7,0-1.3-0.3-1.7-0.7c-0.4-0.4-0.7-1-0.7-1.7c0-1.3,1.1-2.4,2.4-2.4
	h23.8c1.3,0,2.4-1.1,2.4-2.4c0-1.3-1.1-2.4-2.4-2.4H41c-0.7,0-1.3-0.3-1.7-0.7c-0.4-0.4-0.7-1-0.7-1.7c0-1.3,1.1-2.4,2.4-2.4h37.6
	C79.9,81.7,81,82.8,81,84.1z"/>
<path class="st0" d="M137,140.5V131c0-1.3,1.1-2.4,2.4-2.4h25.5c0.7,0,1.2,0.3,1.7,0.7c0.4,0.4,0.7,1,0.7,1.7c0,1.3-1.1,2.4-2.4,2.4
	h-16c-1.3,0-2.4,1.1-2.4,2.4c0,1.3,1.1,2.4,2.4,2.4h27.3c0.7,0,1.2,0.3,1.7,0.7c0.4,0.4,0.7,1,0.7,1.7c0,1.3-1.1,2.4-2.4,2.4h-36.7
	C138.1,142.9,137,141.8,137,140.5z"/>
<path class="st0" d="M173.5,64.2h-42.8c-1.2,0-2.2-1-2.2-2.2v-1.2c0-1.2,1-2.2,2.2-2.2h42.8c1.2,0,2.2,1,2.2,2.2V62
	C175.7,63.2,174.7,64.2,173.5,64.2z"/>
<path class="st0" d="M202.3,142.9h-26.4c-1.3,0-2.4-1.1-2.4-2.4l0,0c0-1.3,1.1-2.4,2.4-2.4h26.4c1.3,0,2.4,1.1,2.4,2.4l0,0
	C204.6,141.8,203.6,142.9,202.3,142.9z"/>
<path class="st0" d="M190.9,133.4h-26.4c-1.3,0-2.4-1.1-2.4-2.4v0c0-1.3,1.1-2.4,2.4-2.4h26.4c1.3,0,2.4,1.1,2.4,2.4v0
	C193.3,132.3,192.2,133.4,190.9,133.4z"/>
<path class="st0" d="M204.7,64.2h-35.3c-1.6,0-2.8-1.3-2.8-2.8v0c0-1.6,1.3-2.8,2.8-2.8h35.3c1.6,0,2.8,1.3,2.8,2.8v0
	C207.5,63,206.2,64.2,204.7,64.2z"/>
<path class="st0" d="M49.5,86.5H17.2c-1.3,0-2.4-1.1-2.4-2.4l0,0c0-1.3,1.1-2.4,2.4-2.4h32.3c1.3,0,2.4,1.1,2.4,2.4l0,0
	C51.9,85.4,50.8,86.5,49.5,86.5z"/>
<path class="st0" d="M49.5,96.2H17.2c-1.3,0-2.4-1.1-2.4-2.4l0,0c0-1.3,1.1-2.4,2.4-2.4h32.3c1.3,0,2.4,1.1,2.4,2.4l0,0
	C51.9,95.1,50.8,96.2,49.5,96.2z"/>
</svg>
