<?xml version="1.0" encoding="utf-8"?>
<!-- Generator: Adobe Illustrator 22.1.0, SVG Export Plug-In . SVG Version: 6.00 Build 0)  -->
<svg version="1.1" id="Layer_1" xmlns="http://www.w3.org/2000/svg" xmlns:xlink="http://www.w3.org/1999/xlink" x="0px" y="0px"
	 viewBox="0 0 720 708" style="enable-background:new 0 0 720 708;" xml:space="preserve">
<style type="text/css">
	.st0{opacity:0.18;fill:#93278F;}
	.st1{opacity:0.51;fill:#93278F;}
	.st2{opacity:0.4;fill:#93278F;}
</style>
<path class="st0" d="M607.5,581.8c0.4-0.4,0.8-0.8,1.2-1.3c0.8-0.9,1.6-1.7,2.4-2.6c0.3-0.3,0.6-0.6,0.9-0.9c1-1.1,2-2.3,3-3.4
	c0.4-0.4,0.8-0.9,1.1-1.3c0.7-0.8,1.4-1.6,2.1-2.4c0.4-0.5,0.8-0.9,1.2-1.4c0.8-0.9,1.6-1.9,2.4-2.8c0.4-0.4,0.7-0.9,1.1-1.3
	c0.8-1,1.6-2,2.5-3c0.4-0.5,0.8-1,1.2-1.5c0.6-0.8,1.2-1.5,1.8-2.3c0.4-0.5,0.8-1,1.2-1.5c0.8-1.1,1.6-2.1,2.4-3.2
	c0.4-0.5,0.8-1.1,1.2-1.6c0.6-0.8,1.2-1.7,1.9-2.5c0.4-0.6,0.8-1.1,1.2-1.7c0.5-0.7,1.1-1.5,1.6-2.2c0.4-0.6,0.8-1.1,1.2-1.7
	c0.8-1.2,1.6-2.4,2.4-3.5c0.4-0.6,0.8-1.2,1.2-1.7c0.5-0.7,1-1.5,1.5-2.2c0.4-0.6,0.8-1.3,1.3-1.9c0.5-0.7,0.9-1.4,1.4-2.1
	c0.4-0.6,0.8-1.3,1.2-1.9c0.7-1.2,1.5-2.4,2.2-3.5c0.4-0.7,0.8-1.4,1.2-2.1c0.4-0.7,0.8-1.3,1.2-2c0.4-0.7,0.9-1.5,1.3-2.2
	c0.4-0.6,0.7-1.3,1.1-1.9c0.3-0.6,0.7-1.2,1-1.8c0,0,0,0,0,0c26.7-47.6,41.9-102.6,41.9-161.1c0-182.3-147.7-330-330-330
	c-9.6,0-19.1,0.4-28.5,1.2c-2.3,0.2-4.7,0.4-7,0.7c-0.6,0.1-1.3,0.1-1.9,0.2c-2.1,0.2-4.2,0.5-6.2,0.8c-0.3,0-0.5,0.1-0.8,0.1
	c-2.2,0.3-4.5,0.6-6.7,1c-0.7,0.1-1.4,0.2-2.1,0.3c-1.8,0.3-3.7,0.6-5.5,0.9c-0.5,0.1-1,0.2-1.4,0.3c-2.1,0.4-4.3,0.8-6.4,1.2
	c-0.8,0.2-1.5,0.3-2.3,0.5c-1.6,0.3-3.2,0.7-4.8,1c-0.7,0.2-1.3,0.3-2,0.5c-2,0.5-4,1-6,1.5c-0.9,0.2-1.7,0.4-2.6,0.7
	c-1.4,0.4-2.7,0.7-4.1,1.1c-0.9,0.2-1.7,0.5-2.6,0.7c-1.9,0.5-3.7,1.1-5.6,1.6c-1,0.3-2,0.6-3,0.9c-1.1,0.3-2.2,0.7-3.2,1
	c-1.1,0.3-2.1,0.7-3.2,1c-1.7,0.6-3.3,1.1-5,1.7c0,0,0,0-0.1,0c-1.5,0.5-3,1.1-4.5,1.7c-0.7,0.3-1.3,0.5-2,0.8
	c-1.4,0.5-2.8,1.1-4.2,1.6c-0.7,0.3-1.5,0.6-2.2,0.9c-1.4,0.6-2.7,1.1-4.1,1.7c-0.7,0.3-1.5,0.6-2.2,0.9c-1.4,0.6-2.8,1.2-4.1,1.8
	c-0.4,0.2-0.8,0.4-1.3,0.6c-2.8,1.3-5.6,2.6-8.4,3.9c-0.7,0.3-1.4,0.7-2.1,1c-1.2,0.6-2.4,1.2-3.6,1.8c-0.9,0.4-1.7,0.9-2.6,1.3
	c-1.2,0.6-2.3,1.2-3.5,1.8c-0.9,0.5-1.8,1-2.6,1.4c-1.1,0.6-2.3,1.2-3.4,1.9c-0.9,0.5-1.8,1-2.7,1.5c-1.1,0.6-2.2,1.2-3.3,1.9
	c-1,0.6-2.1,1.2-3.1,1.9c-1.7,1.1-3.5,2.1-5.2,3.2c-1,0.6-2,1.3-3,1.9c-0.9,0.6-1.8,1.2-2.6,1.7c-0.1,0.1-0.2,0.1-0.3,0.2
	c-0.1,0.1-0.2,0.1-0.3,0.2c-0.9,0.6-1.7,1.1-2.6,1.7c-0.9,0.6-1.8,1.2-2.7,1.8c-0.1,0-0.1,0.1-0.2,0.1c-0.1,0-0.1,0.1-0.2,0.1
	c-0.8,0.5-1.5,1-2.2,1.6c-0.1,0.1-0.3,0.2-0.4,0.3c-0.2,0.1-0.3,0.2-0.5,0.3c-0.7,0.5-1.4,1-2.1,1.5c-0.1,0-0.1,0.1-0.2,0.1
	c-0.1,0-0.1,0.1-0.2,0.1c-1,0.7-1.9,1.4-2.9,2.1c-0.8,0.6-1.6,1.2-2.4,1.8c0,0,0,0,0,0c0,0,0,0,0,0c-1.7,1.3-3.4,2.6-5,3.9
	c0,0-0.1,0.1-0.1,0.1c0,0,0,0,0,0c-0.4,0.3-0.7,0.6-1.1,0.9c-0.3,0.2-0.6,0.5-0.8,0.7c-0.3,0.2-0.6,0.5-0.9,0.7
	c-0.8,0.7-1.7,1.4-2.5,2c-0.7,0.6-1.4,1.2-2.2,1.8c-0.1,0-0.1,0.1-0.2,0.1c-0.1,0.1-0.1,0.1-0.2,0.2c-0.8,0.7-1.7,1.4-2.5,2.1
	c-0.1,0.1-0.2,0.2-0.3,0.2c-0.1,0.1-0.2,0.1-0.2,0.2c-0.7,0.6-1.4,1.2-2.1,1.8c-1,0.9-2,1.8-3,2.6c-0.7,0.7-1.5,1.3-2.2,2
	c-0.9,0.8-1.8,1.6-2.6,2.4c-0.2,0.2-0.4,0.4-0.7,0.6c-0.2,0.2-0.3,0.3-0.5,0.5c-0.4,0.4-0.8,0.8-1.3,1.2c-1.6,1.5-3.2,3.1-4.8,4.6
	c0,0,0,0,0,0c0,0,0,0,0,0c-0.4,0.4-0.9,0.9-1.3,1.3c0,0,0,0-0.1,0.1c0,0,0,0-0.1,0.1c-1.1,1.1-2.1,2.1-3.2,3.2
	c-0.1,0.1-0.1,0.1-0.2,0.2c-0.1,0.1-0.1,0.1-0.2,0.2c-0.6,0.6-1.1,1.2-1.7,1.7c-0.9,1-1.9,2-2.8,3c-0.1,0.1-0.1,0.1-0.2,0.2
	c0,0.1-0.1,0.1-0.1,0.2c-0.6,0.6-1.2,1.3-1.7,1.9c-1,1.1-1.9,2.1-2.9,3.2c-0.6,0.6-1.2,1.3-1.7,1.9c0,0,0,0,0,0c0,0,0,0,0,0
	c-1.1,1.2-2.2,2.5-3.2,3.8c-0.4,0.5-0.8,1-1.2,1.4c0,0,0,0,0,0c0,0,0,0,0,0c-1.5,1.7-2.9,3.5-4.4,5.3c-0.3,0.4-0.6,0.7-0.9,1.1
	c-0.1,0.1-0.1,0.2-0.2,0.3c-0.1,0.1-0.2,0.2-0.3,0.3c-1,1.3-2,2.5-3,3.8c-0.5,0.6-0.9,1.2-1.4,1.8c0,0-0.1,0.1-0.1,0.1
	c0,0-0.1,0.1-0.1,0.1c-0.9,1.2-1.8,2.3-2.6,3.5c-0.5,0.7-1,1.3-1.5,2c0,0,0,0.1-0.1,0.1c0,0,0,0.1-0.1,0.1c-0.9,1.2-1.7,2.4-2.6,3.6
	c-0.5,0.7-0.9,1.3-1.4,2c-0.9,1.4-1.9,2.7-2.8,4.1c-0.1,0.1-0.2,0.3-0.3,0.4c-0.1,0.2-0.3,0.4-0.4,0.6c-0.1,0.2-0.2,0.4-0.4,0.5
	c0,0-0.1,0.1-0.1,0.1c0,0-0.1,0.1-0.1,0.1c-1.3,1.9-2.5,3.8-3.7,5.7c-0.3,0.5-0.6,0.9-0.9,1.4c-0.9,1.5-1.8,2.9-2.7,4.4
	c0,0,0,0.1-0.1,0.1c0,0,0,0.1-0.1,0.1c-0.3,0.5-0.6,1-0.9,1.5c-0.1,0.1-0.2,0.3-0.2,0.4c-0.1,0.1-0.2,0.3-0.2,0.4
	c-0.7,1.2-1.4,2.4-2.1,3.7c-0.4,0.7-0.8,1.4-1.2,2.2c0,0,0,0,0,0c0,0,0,0,0,0c-0.8,1.4-1.5,2.7-2.3,4.1c0,0,0,0,0,0c0,0,0,0,0,0
	c-0.4,0.7-0.7,1.3-1.1,2c-0.8,1.6-1.7,3.1-2.5,4.7c-0.1,0.2-0.2,0.3-0.2,0.5c-0.1,0.1-0.1,0.2-0.2,0.3c-0.1,0.2-0.3,0.5-0.4,0.7
	c-1.1,2.1-2.1,4.2-3.1,6.3c-0.2,0.5-0.5,1-0.7,1.6c-0.7,1.6-1.5,3.1-2.2,4.7c0,0,0,0.1-0.1,0.1c0,0,0,0.1-0.1,0.1
	c-0.3,0.7-0.6,1.4-0.9,2.1c-0.6,1.4-1.3,2.9-1.9,4.3c0,0,0,0,0,0c0,0,0,0,0,0c-0.3,0.8-0.6,1.5-1,2.3c-0.6,1.5-1.2,3-1.9,4.5
	c-0.3,0.7-0.6,1.4-0.8,2.1c-0.7,1.7-1.3,3.4-2,5.1c-0.1,0.2-0.2,0.4-0.2,0.6l-0.1,0.2c-0.1,0.2-0.2,0.4-0.2,0.6
	c-0.8,2.2-1.6,4.5-2.4,6.7c-0.2,0.6-0.4,1.2-0.6,1.8c-0.6,1.7-1.1,3.3-1.7,5c-0.3,0.8-0.5,1.6-0.7,2.4c-0.5,1.4-0.9,2.9-1.3,4.3
	c0,0.1,0,0.2-0.1,0.2c0,0.1,0,0.1-0.1,0.2c-0.2,0.7-0.4,1.5-0.7,2.2c-0.5,1.6-0.9,3.2-1.3,4.7c-0.2,0.7-0.4,1.5-0.6,2.2
	c-0.5,2.1-1.1,4.1-1.6,6.2c0,0,0,0,0,0c-0.1,0.2-0.1,0.5-0.2,0.7c-0.1,0.4-0.2,0.8-0.3,1.3c-0.4,1.8-0.9,3.7-1.3,5.5
	c0,0.1,0,0.1-0.1,0.2c0,0.1,0,0.1,0,0.2c-0.1,0.4-0.2,0.8-0.2,1.2c0,0.2-0.1,0.4-0.1,0.6c0,0.1-0.1,0.3-0.1,0.4
	c-0.3,1.5-0.6,3.1-0.9,4.6c-0.2,0.8-0.3,1.7-0.5,2.5c-0.3,1.4-0.5,2.9-0.8,4.3c0,0.1,0,0.3-0.1,0.4c0,0.1,0,0.2-0.1,0.4
	c-0.1,0.8-0.3,1.5-0.4,2.3c-0.3,1.6-0.5,3.3-0.8,4.9c-0.1,0.8-0.2,1.5-0.3,2.3c-0.3,1.8-0.5,3.7-0.7,5.5c-0.1,0.4-0.1,0.8-0.2,1.2
	c0,0.1,0,0.2,0,0.3c0,0,0,0.1,0,0.1c-0.3,2.4-0.5,4.7-0.8,7.1c0,0.1,0,0.1,0,0.2c0,0.1,0,0.1,0,0.2c-0.1,0.7-0.1,1.4-0.2,2.1
	c-0.2,1.7-0.3,3.4-0.4,5.1c-0.1,0.8-0.1,1.6-0.2,2.4c0,0.1,0,0.2,0,0.3c0,0.1,0,0.2,0,0.4c-0.1,1.5-0.2,3-0.3,4.4
	c0,0.9-0.1,1.8-0.1,2.7c-0.1,1.6-0.1,3.2-0.2,4.8c0,0.1,0,0.2,0,0.3c0,0.1,0,0.2,0,0.3c0,0.7,0,1.4-0.1,2.1c0,0.8,0,1.5,0,2.3
	c0,1.7-0.1,3.4-0.1,5.2c0,1.7,0,3.4,0,5.1c0,0.7,0,1.4,0,2c0,0,0,0,0,0.1c0,0,0,0,0,0c0,0.7,0,1.3,0.1,2c0,0.1,0,0.2,0,0.2
	c0,0.1,0,0.1,0,0.2c0,1.6,0.1,3.2,0.2,4.8c0,0.8,0.1,1.6,0.1,2.3c0,0.1,0,0.2,0,0.3c0,0.1,0,0.2,0,0.3c0.1,1.5,0.2,2.9,0.3,4.4
	c0,0,0,0,0,0c0,0,0,0,0,0c0.1,0.8,0.1,1.5,0.2,2.3c0,0.1,0,0.2,0,0.2c0,0.1,0,0.2,0,0.3c0.1,1.5,0.2,2.9,0.4,4.4c0,0.2,0,0.4,0,0.6
	c0,0.2,0,0.3,0,0.5c0,0.5,0.1,0.9,0.1,1.4c0,0,0,0,0,0.1c0,0,0,0,0,0c0.2,2.3,0.5,4.7,0.7,7c0,0,0,0,0,0c0,0,0,0,0,0
	c0,0.3,0.1,0.7,0.1,1c0,0.1,0,0.3,0,0.4c0,0.1,0,0.3,0.1,0.4c0.2,1.7,0.4,3.5,0.7,5.2c0.1,0.7,0.2,1.5,0.3,2.2c0,0.1,0,0.2,0,0.2
	c0,0.1,0,0.2,0,0.3c0.2,1.4,0.4,2.8,0.6,4.1c0,0.1,0,0.1,0,0.2c0,0.1,0,0.2,0,0.2c0.1,0.7,0.2,1.3,0.3,2c0,0.1,0,0.2,0.1,0.4
	c0,0.1,0,0.2,0.1,0.4c0.2,1.4,0.5,2.8,0.7,4.2c0,0,0,0,0,0.1c0,0,0,0,0,0c0.1,0.8,0.3,1.5,0.4,2.3c0.4,1.9,0.7,3.8,1.1,5.6
	c0.1,0.4,0.2,0.8,0.2,1.2c0.5,2.2,1,4.4,1.5,6.6c0,0.1,0,0.1,0,0.2c0,0.1,0,0.1,0,0.2c0.1,0.4,0.2,0.8,0.3,1.2
	c0,0.2,0.1,0.4,0.1,0.5c0,0.2,0.1,0.4,0.1,0.5c0.3,1.3,0.7,2.7,1,4c0,0.1,0,0.2,0.1,0.3c0,0.1,0,0.2,0.1,0.3c0.2,0.7,0.4,1.4,0.5,2
	c0,0,0,0.1,0,0.1c0,0,0,0.1,0,0.1c0.4,1.4,0.8,2.9,1.2,4.3c0.2,0.8,0.4,1.6,0.7,2.4c0,0,0,0,0,0c0,0,0,0,0,0.1
	c0.4,1.5,0.9,3,1.4,4.5c0.2,0.7,0.4,1.4,0.6,2.1c0.2,0.6,0.4,1.2,0.6,1.7c0.4,1.3,0.8,2.5,1.2,3.8c0.1,0.3,0.2,0.7,0.3,1
	c0.1,0.2,0.1,0.3,0.2,0.5c0.7,2,1.4,4,2.1,6c0.2,0.6,0.5,1.3,0.7,1.9c0,0.1,0,0.1,0.1,0.2c0,0.1,0.1,0.1,0.1,0.2
	c0.5,1.4,1,2.8,1.6,4.2c0.3,0.8,0.6,1.6,0.9,2.4c0.6,1.4,1.1,2.8,1.7,4.2c0.3,0.8,0.6,1.5,0.9,2.3c0.7,1.6,1.3,3.1,2,4.7
	c0.2,0.5,0.4,0.9,0.6,1.4c0,0.1,0.1,0.1,0.1,0.2c0,0.1,0.1,0.2,0.1,0.2c0.9,1.9,1.7,3.8,2.6,5.8c0,0.1,0.1,0.1,0.1,0.2
	c0,0.1,0.1,0.1,0.1,0.2c0.2,0.4,0.4,0.8,0.6,1.2c0.8,1.6,1.5,3.2,2.3,4.7c0.3,0.6,0.6,1.1,0.9,1.7c0.1,0.1,0.1,0.3,0.2,0.4
	c0.1,0.2,0.2,0.3,0.2,0.5c0.6,1.2,1.2,2.4,1.8,3.5c0.3,0.6,0.7,1.3,1,1.9c0.1,0.1,0.1,0.2,0.2,0.3c0.1,0.1,0.1,0.2,0.2,0.4
	c0.7,1.2,1.3,2.5,2,3.7c0.4,0.6,0.7,1.3,1.1,1.9c0,0,0,0,0,0c0,0,0,0,0,0c0.8,1.4,1.6,2.9,2.4,4.3c0.2,0.3,0.3,0.5,0.5,0.8
	c0.1,0.2,0.3,0.5,0.4,0.7c0.1,0.1,0.1,0.2,0.2,0.3c1.1,1.9,2.2,3.7,3.3,5.5c0.3,0.5,0.7,1.1,1,1.6c0,0,0,0,0,0.1c0,0,0,0.1,0.1,0.1
	c0.8,1.3,1.6,2.6,2.5,4c0,0,0,0.1,0,0.1c0,0,0,0.1,0.1,0.1c0.4,0.5,0.7,1.1,1.1,1.6c0.1,0.1,0.1,0.2,0.2,0.3
	c0.1,0.1,0.1,0.2,0.2,0.3c0.8,1.2,1.5,2.3,2.3,3.5c0,0,0,0,0,0c0,0,0,0,0,0c0.4,0.7,0.9,1.3,1.3,2c0.9,1.3,1.7,2.5,2.6,3.8
	c0.1,0.1,0.1,0.2,0.2,0.3c0.1,0.1,0.1,0.2,0.2,0.3c0.3,0.4,0.5,0.8,0.8,1.1c0,0,0,0.1,0.1,0.1c0,0,0.1,0.1,0.1,0.1
	c1.3,1.8,2.6,3.6,3.9,5.3c0,0,0,0.1,0.1,0.1c0,0,0.1,0.1,0.1,0.1c0.1,0.1,0.2,0.2,0.2,0.3c1.2,1.6,2.4,3.2,3.7,4.8
	c0,0.1,0.1,0.1,0.1,0.2c0,0,0.1,0.1,0.1,0.1c0.4,0.5,0.8,1,1.2,1.5c1,1.3,2,2.5,3,3.8c0.5,0.6,1,1.2,1.4,1.8c1,1.2,2,2.4,3,3.6
	c0.5,0.5,0.9,1.1,1.4,1.6c1.2,1.4,2.5,2.8,3.7,4.3c0.2,0.2,0.4,0.5,0.6,0.7c0.1,0.1,0.1,0.1,0.2,0.2c0,0,0,0,0,0
	c0.4,0.4,0.8,0.8,1.1,1.3c0.8,0.9,1.7,1.9,2.5,2.8c0.5,0.5,0.9,1,1.4,1.5c0,0,0,0,0,0c0,0,0,0,0,0c0.8,0.9,1.6,1.7,2.4,2.6
	c0.4,0.4,0.7,0.8,1.1,1.2c0.1,0.1,0.2,0.2,0.2,0.2c0.1,0.1,0.2,0.2,0.3,0.3c0.5,0.5,1.1,1.1,1.6,1.6c0.4,0.4,0.8,0.8,1.2,1.2
	l0.2,0.2c0.2,0.2,0.3,0.3,0.5,0.5c1.2,1.2,2.5,2.5,3.8,3.7c0,0,0,0,0.1,0.1c0,0,0,0,0.1,0.1c0.3,0.3,0.7,0.7,1,1
	c0,0,0.1,0.1,0.1,0.1c0,0,0.1,0.1,0.1,0.1c0.9,0.8,1.7,1.6,2.6,2.5c0,0,0.1,0.1,0.1,0.1c0,0,0,0,0.1,0.1c0.4,0.4,0.9,0.8,1.3,1.2
	c0.9,0.9,1.9,1.8,2.9,2.6c0.4,0.4,0.8,0.7,1.2,1.1c1.3,1.2,2.7,2.4,4,3.5c0,0,0,0,0.1,0.1c0,0,0,0,0.1,0.1c0.2,0.1,0.3,0.3,0.5,0.4
	c1.2,1,2.3,2,3.5,3c0,0,0.1,0.1,0.1,0.1c0,0,0.1,0.1,0.1,0.1c0.4,0.3,0.8,0.7,1.2,1c1,0.8,2,1.6,3,2.5c0.5,0.4,0.9,0.8,1.4,1.1
	c1.1,0.9,2.3,1.8,3.4,2.7c0.3,0.2,0.6,0.5,0.9,0.7c0,0,0,0,0.1,0c0,0,0.1,0,0.1,0.1c1.4,1.1,2.8,2.2,4.3,3.3c0.3,0.3,0.7,0.5,1,0.8
	c1.1,0.8,2.3,1.7,3.4,2.5c0.5,0.3,1,0.7,1.4,1c1.1,0.8,2.1,1.5,3.2,2.3c0.4,0.3,0.9,0.6,1.3,0.9c1.4,1,2.8,2,4.3,2.9c0,0,0,0,0.1,0
	c0,0,0,0,0,0c0.1,0,0.1,0.1,0.2,0.1c1.5,1,3.1,2,4.6,3c0.4,0.3,0.9,0.5,1.3,0.8c0,0,0,0,0,0c0,0,0,0,0,0c1,0.6,2,1.3,3,1.9
	c0.1,0.1,0.2,0.1,0.4,0.2c0.1,0.1,0.2,0.1,0.3,0.2c0.4,0.3,0.8,0.5,1.3,0.8c1.2,0.7,2.4,1.4,3.5,2.1c0.4,0.2,0.8,0.5,1.2,0.7
	c1.5,0.9,3.1,1.8,4.7,2.7c0,0,0.1,0.1,0.1,0.1c0,0,0.1,0,0.1,0.1c0.2,0.1,0.4,0.2,0.6,0.3c1.4,0.8,2.7,1.5,4.1,2.3
	c0.5,0.2,0.9,0.5,1.4,0.7c0.1,0,0.1,0.1,0.2,0.1c0.1,0,0.1,0.1,0.2,0.1c1,0.5,2,1.1,3.1,1.6c0.1,0,0.1,0.1,0.2,0.1
	c0.1,0,0.1,0.1,0.2,0.1c0.4,0.2,0.8,0.4,1.2,0.6c0,0,0.1,0,0.1,0.1c0,0,0.1,0,0.1,0.1c1,0.5,2,1,3.1,1.6c0.3,0.1,0.6,0.3,0.9,0.4
	c0.1,0.1,0.2,0.1,0.4,0.2c0.2,0.1,0.4,0.2,0.6,0.3c1.7,0.8,3.3,1.6,5,2.4c0.4,0.2,0.9,0.4,1.3,0.6c1.2,0.6,2.5,1.1,3.7,1.7
	c0,0,0.1,0,0.1,0c0,0,0.1,0,0.1,0c0.5,0.2,0.9,0.4,1.4,0.6c0.1,0,0.1,0.1,0.2,0.1c0.1,0,0.1,0.1,0.2,0.1c1,0.5,2,0.9,3.1,1.3
	c0.1,0.1,0.3,0.1,0.4,0.2c0.1,0,0.2,0.1,0.2,0.1c0.4,0.2,0.9,0.4,1.3,0.6c1.7,0.7,3.4,1.4,5.1,2.1c38.3,15.6,80.3,24.2,124.2,24.2
	c1.7,0,3.5,0,5.2,0c0.5,0,1,0,1.5,0c1.3,0,2.6-0.1,3.9-0.1c0.5,0,0.9,0,1.4,0c1.7-0.1,3.4-0.1,5.1-0.2c0.2,0,0.5,0,0.7,0
	c1.5-0.1,3-0.2,4.5-0.3c0.5,0,1-0.1,1.5-0.1c1.3-0.1,2.6-0.2,4-0.3c0.4,0,0.8-0.1,1.3-0.1c1.7-0.1,3.4-0.3,5-0.5
	c0.4,0,0.7-0.1,1.1-0.1c1.4-0.1,2.7-0.3,4.1-0.5c0.5-0.1,1-0.1,1.5-0.2c1.4-0.2,2.7-0.3,4.1-0.5c0.3,0,0.7-0.1,1-0.1
	c1.7-0.2,3.3-0.5,5-0.7c0.4-0.1,0.8-0.1,1.3-0.2c1.3-0.2,2.6-0.4,3.8-0.6c0.5-0.1,1-0.2,1.5-0.3c1.5-0.3,2.9-0.5,4.4-0.8
	c0.2,0,0.4-0.1,0.6-0.1c1.6-0.3,3.3-0.6,4.9-1c0.5-0.1,0.9-0.2,1.4-0.3c1.2-0.3,2.5-0.5,3.7-0.8c0.5-0.1,0.9-0.2,1.4-0.3
	c1.6-0.4,3.2-0.7,4.8-1.1c0.1,0,0.1,0,0.2,0c1.5-0.4,3.1-0.8,4.6-1.2c0.5-0.1,0.9-0.2,1.4-0.4c1.2-0.3,2.4-0.7,3.6-1
	c0.4-0.1,0.9-0.2,1.3-0.4c1.6-0.4,3.2-0.9,4.7-1.4c0.2-0.1,0.5-0.1,0.7-0.2c1.3-0.4,2.7-0.8,4-1.2c0.5-0.1,0.9-0.3,1.4-0.4
	c1.2-0.4,2.5-0.8,3.7-1.2c0.4-0.1,0.7-0.2,1.1-0.4c1.5-0.5,3.1-1.1,4.6-1.6c0.3-0.1,0.7-0.2,1-0.4c1.2-0.4,2.5-0.9,3.7-1.3
	c0.5-0.2,0.9-0.3,1.4-0.5c1.3-0.5,2.5-1,3.8-1.5c0.3-0.1,0.6-0.2,0.8-0.3c1.5-0.6,3-1.2,4.5-1.8c0.4-0.2,0.8-0.3,1.2-0.5
	c1.2-0.5,2.3-1,3.5-1.5c0.4-0.2,0.9-0.4,1.3-0.6c1.4-0.6,2.7-1.2,4.1-1.8c0.1-0.1,0.3-0.1,0.4-0.2c1.5-0.7,3-1.4,4.4-2
	c0.4-0.2,0.8-0.4,1.2-0.6c1.1-0.5,2.2-1.1,3.3-1.6c0.4-0.2,0.8-0.4,1.2-0.6c1.5-0.7,2.9-1.4,4.4-2.2c0.1,0,0.2-0.1,0.3-0.1
	c1.4-0.7,2.7-1.4,4.1-2.1c0.4-0.2,0.8-0.4,1.3-0.7c1.1-0.6,2.2-1.2,3.3-1.8c0.4-0.2,0.7-0.4,1.1-0.6c1.4-0.8,2.8-1.6,4.2-2.4
	c0.2-0.1,0.5-0.3,0.7-0.4c1.2-0.7,2.3-1.4,3.5-2.1c0.4-0.3,0.8-0.5,1.3-0.8c1.1-0.7,2.2-1.3,3.2-2c0.3-0.2,0.6-0.4,1-0.6
	c1.4-0.8,2.7-1.7,4.1-2.6c0.3-0.2,0.6-0.4,0.9-0.6c1.1-0.7,2.1-1.4,3.2-2.1c0.4-0.3,0.8-0.5,1.2-0.8c1.1-0.7,2.2-1.5,3.3-2.3
	c0.2-0.2,0.5-0.3,0.7-0.5c1.3-0.9,2.6-1.8,3.9-2.8c0.4-0.3,0.7-0.5,1.1-0.8c1-0.7,2-1.4,2.9-2.1c0.4-0.3,0.8-0.6,1.2-0.9
	c1.2-0.9,2.3-1.8,3.5-2.6c0.1-0.1,0.2-0.2,0.4-0.3c1.3-1,2.5-1.9,3.8-2.9c0.4-0.3,0.8-0.6,1.1-0.9c0.9-0.7,1.9-1.5,2.8-2.2
	c0.4-0.3,0.7-0.6,1.1-0.9c1.2-1,2.4-2,3.6-3c0.2-0.1,0.3-0.3,0.5-0.4c1.1-0.9,2.1-1.8,3.2-2.7c0.4-0.3,0.8-0.7,1.2-1
	c0.9-0.8,1.7-1.5,2.6-2.3c0.4-0.3,0.7-0.6,1.1-1c1.2-1.1,2.3-2.1,3.5-3.2c0.3-0.3,0.5-0.5,0.8-0.8c0.9-0.8,1.8-1.7,2.7-2.5
	c0.4-0.4,0.8-0.8,1.2-1.2c0.8-0.8,1.7-1.6,2.5-2.4c0.3-0.3,0.6-0.6,1-1c1.1-1.1,2.2-2.2,3.3-3.3c0.3-0.3,0.7-0.7,1-1.1
	C605.9,583.4,606.7,582.6,607.5,581.8z"/>
<path class="st1" d="M525,503.3c0.3-0.3,0.5-0.5,0.8-0.8c0.5-0.6,1.1-1.1,1.6-1.7c0.2-0.2,0.4-0.4,0.6-0.6c0.7-0.7,1.3-1.5,2-2.2
	c0.2-0.3,0.5-0.6,0.7-0.8c0.5-0.5,0.9-1,1.3-1.6c0.3-0.3,0.5-0.6,0.8-0.9c0.5-0.6,1-1.2,1.5-1.8c0.2-0.3,0.5-0.6,0.7-0.9
	c0.5-0.7,1.1-1.3,1.6-2c0.3-0.3,0.5-0.7,0.8-1c0.4-0.5,0.8-1,1.2-1.5c0.3-0.3,0.5-0.7,0.8-1c0.5-0.7,1.1-1.4,1.6-2.1
	c0.3-0.3,0.5-0.7,0.8-1c0.4-0.6,0.8-1.1,1.2-1.7c0.3-0.4,0.5-0.7,0.8-1.1c0.3-0.5,0.7-1,1-1.5c0.3-0.4,0.5-0.7,0.8-1.1
	c0.5-0.8,1.1-1.5,1.6-2.3c0.3-0.4,0.5-0.8,0.8-1.1c0.3-0.5,0.6-1,1-1.5c0.3-0.4,0.5-0.8,0.8-1.3c0.3-0.5,0.6-0.9,0.9-1.4
	c0.3-0.4,0.5-0.8,0.8-1.2c0.5-0.8,1-1.5,1.4-2.3c0.3-0.5,0.5-0.9,0.8-1.4c0.3-0.4,0.5-0.9,0.8-1.3c0.3-0.5,0.6-1,0.8-1.4
	c0.2-0.4,0.5-0.8,0.7-1.3c0.2-0.4,0.4-0.8,0.7-1.2c0,0,0,0,0,0C574.1,429.2,584,393.3,584,355c0-119.2-96.6-215.9-215.9-215.9
	c-6.3,0-12.5,0.3-18.6,0.8c-1.5,0.1-3,0.3-4.6,0.4c-0.4,0-0.8,0.1-1.2,0.1c-1.4,0.2-2.7,0.3-4.1,0.5c-0.2,0-0.3,0-0.5,0.1
	c-1.5,0.2-2.9,0.4-4.4,0.6c-0.5,0.1-0.9,0.1-1.4,0.2c-1.2,0.2-2.4,0.4-3.6,0.6c-0.3,0.1-0.6,0.1-0.9,0.2c-1.4,0.3-2.8,0.5-4.2,0.8
	c-0.5,0.1-1,0.2-1.5,0.3c-1,0.2-2.1,0.5-3.1,0.7c-0.4,0.1-0.9,0.2-1.3,0.3c-1.3,0.3-2.6,0.6-3.9,1c-0.6,0.1-1.1,0.3-1.7,0.4
	c-0.9,0.2-1.8,0.5-2.7,0.7c-0.6,0.2-1.1,0.3-1.7,0.5c-1.2,0.3-2.4,0.7-3.6,1.1c-0.7,0.2-1.3,0.4-2,0.6c-0.7,0.2-1.4,0.4-2.1,0.7
	c-0.7,0.2-1.4,0.5-2.1,0.7c-1.1,0.4-2.2,0.7-3.3,1.1c0,0,0,0,0,0c-1,0.4-2,0.7-3,1.1c-0.4,0.2-0.9,0.3-1.3,0.5
	c-0.9,0.3-1.8,0.7-2.7,1.1c-0.5,0.2-1,0.4-1.5,0.6c-0.9,0.4-1.8,0.7-2.7,1.1c-0.5,0.2-1,0.4-1.4,0.6c-0.9,0.4-1.8,0.8-2.7,1.2
	c-0.3,0.1-0.5,0.3-0.8,0.4c-1.9,0.8-3.7,1.7-5.5,2.6c-0.5,0.2-0.9,0.4-1.4,0.7c-0.8,0.4-1.6,0.8-2.4,1.2c-0.6,0.3-1.1,0.6-1.7,0.9
	c-0.8,0.4-1.5,0.8-2.3,1.2c-0.6,0.3-1.2,0.6-1.7,0.9c-0.7,0.4-1.5,0.8-2.2,1.2c-0.6,0.3-1.2,0.7-1.8,1c-0.7,0.4-1.4,0.8-2.1,1.2
	c-0.7,0.4-1.3,0.8-2,1.2c-1.1,0.7-2.3,1.4-3.4,2.1c-0.7,0.4-1.3,0.8-2,1.2c-0.6,0.4-1.2,0.8-1.7,1.1c-0.1,0-0.1,0.1-0.2,0.1
	c-0.1,0-0.1,0.1-0.2,0.1c-0.6,0.4-1.1,0.8-1.7,1.1c-0.6,0.4-1.2,0.8-1.7,1.2c0,0-0.1,0.1-0.1,0.1c0,0-0.1,0.1-0.1,0.1
	c-0.5,0.3-1,0.7-1.5,1c-0.1,0.1-0.2,0.1-0.3,0.2c-0.1,0.1-0.2,0.1-0.3,0.2c-0.5,0.3-0.9,0.6-1.4,1c0,0-0.1,0.1-0.1,0.1
	c0,0-0.1,0.1-0.1,0.1c-0.6,0.5-1.3,0.9-1.9,1.4c-0.5,0.4-1.1,0.8-1.6,1.2c0,0,0,0,0,0c0,0,0,0,0,0c-1.1,0.8-2.2,1.7-3.3,2.5
	c0,0,0,0-0.1,0.1c0,0,0,0,0,0c-0.2,0.2-0.5,0.4-0.7,0.6c-0.2,0.1-0.4,0.3-0.6,0.4c-0.2,0.2-0.4,0.3-0.6,0.5
	c-0.6,0.4-1.1,0.9-1.7,1.3c-0.5,0.4-0.9,0.8-1.4,1.2c0,0-0.1,0.1-0.1,0.1c0,0-0.1,0.1-0.1,0.1c-0.6,0.5-1.1,0.9-1.6,1.4
	c-0.1,0.1-0.1,0.1-0.2,0.2c-0.1,0-0.1,0.1-0.2,0.1c-0.5,0.4-0.9,0.8-1.4,1.2c-0.7,0.6-1.3,1.1-2,1.7c-0.5,0.4-1,0.9-1.4,1.3
	c-0.6,0.5-1.1,1.1-1.7,1.6c-0.1,0.1-0.3,0.3-0.4,0.4c-0.1,0.1-0.2,0.2-0.3,0.3c-0.3,0.3-0.6,0.5-0.8,0.8c-1.1,1-2.1,2-3.1,3
	c0,0,0,0,0,0c0,0,0,0,0,0c-0.3,0.3-0.6,0.6-0.9,0.9c0,0,0,0,0,0c0,0,0,0,0,0c-0.7,0.7-1.4,1.4-2.1,2.1c0,0-0.1,0.1-0.1,0.1
	c0,0-0.1,0.1-0.1,0.1c-0.4,0.4-0.7,0.8-1.1,1.1c-0.6,0.6-1.2,1.3-1.8,1.9c0,0-0.1,0.1-0.1,0.1c0,0-0.1,0.1-0.1,0.1
	c-0.4,0.4-0.8,0.8-1.1,1.2c-0.6,0.7-1.3,1.4-1.9,2.1c-0.4,0.4-0.8,0.8-1.1,1.3c0,0,0,0,0,0c0,0,0,0,0,0c-0.7,0.8-1.4,1.6-2.1,2.5
	c-0.3,0.3-0.5,0.6-0.8,0.9c0,0,0,0,0,0c0,0,0,0,0,0c-1,1.1-1.9,2.3-2.8,3.5c-0.2,0.2-0.4,0.5-0.6,0.7c0,0.1-0.1,0.1-0.1,0.2
	c-0.1,0.1-0.1,0.1-0.2,0.2c-0.7,0.8-1.3,1.6-1.9,2.5c-0.3,0.4-0.6,0.8-0.9,1.2c0,0,0,0.1-0.1,0.1c0,0,0,0.1-0.1,0.1
	c-0.6,0.8-1.2,1.5-1.7,2.3c-0.3,0.4-0.6,0.9-1,1.3c0,0,0,0,0,0.1c0,0,0,0,0,0.1c-0.6,0.8-1.1,1.6-1.7,2.4c-0.3,0.4-0.6,0.9-0.9,1.3
	c-0.6,0.9-1.2,1.8-1.8,2.7c-0.1,0.1-0.1,0.2-0.2,0.3c-0.1,0.1-0.2,0.3-0.3,0.4c-0.1,0.1-0.2,0.2-0.2,0.4c0,0,0,0.1-0.1,0.1
	c0,0,0,0.1-0.1,0.1c-0.8,1.2-1.6,2.5-2.4,3.8c-0.2,0.3-0.4,0.6-0.6,0.9c-0.6,1-1.2,1.9-1.8,2.9c0,0,0,0,0,0.1c0,0,0,0.1,0,0.1
	c-0.2,0.3-0.4,0.7-0.6,1c-0.1,0.1-0.1,0.2-0.2,0.3c0,0.1-0.1,0.2-0.1,0.3c-0.5,0.8-0.9,1.6-1.4,2.4c-0.3,0.5-0.5,0.9-0.8,1.4
	c0,0,0,0,0,0c0,0,0,0,0,0c-0.5,0.9-1,1.8-1.5,2.7c0,0,0,0,0,0c0,0,0,0,0,0c-0.2,0.4-0.5,0.9-0.7,1.3c-0.5,1-1.1,2-1.6,3.1
	c-0.1,0.1-0.1,0.2-0.2,0.3c0,0.1-0.1,0.1-0.1,0.2c-0.1,0.2-0.2,0.3-0.2,0.5c-0.7,1.4-1.4,2.8-2.1,4.1c-0.2,0.3-0.3,0.7-0.5,1
	c-0.5,1-1,2-1.4,3.1c0,0,0,0.1,0,0.1c0,0,0,0.1,0,0.1c-0.2,0.4-0.4,0.9-0.6,1.3c-0.4,0.9-0.8,1.9-1.2,2.8c0,0,0,0,0,0c0,0,0,0,0,0
	c-0.2,0.5-0.4,1-0.6,1.5c-0.4,1-0.8,2-1.2,2.9c-0.2,0.5-0.4,0.9-0.6,1.4c-0.4,1.1-0.9,2.2-1.3,3.3c-0.1,0.1-0.1,0.3-0.2,0.4
	l-0.1,0.2c-0.1,0.1-0.1,0.3-0.2,0.4c-0.5,1.5-1.1,2.9-1.6,4.4c-0.1,0.4-0.3,0.8-0.4,1.2c-0.4,1.1-0.7,2.2-1.1,3.3
	c-0.2,0.5-0.3,1-0.5,1.5c-0.3,0.9-0.6,1.9-0.9,2.8c0,0.1,0,0.1,0,0.2c0,0,0,0.1,0,0.1c-0.1,0.5-0.3,1-0.4,1.5
	c-0.3,1-0.6,2.1-0.9,3.1c-0.1,0.5-0.3,1-0.4,1.4c-0.4,1.3-0.7,2.7-1,4.1c0,0,0,0,0,0c0,0.2-0.1,0.3-0.1,0.5
	c-0.1,0.3-0.1,0.6-0.2,0.8c-0.3,1.2-0.6,2.4-0.8,3.6c0,0,0,0.1,0,0.1c0,0,0,0.1,0,0.1c-0.1,0.3-0.1,0.5-0.2,0.8
	c0,0.1-0.1,0.3-0.1,0.4c0,0.1,0,0.2-0.1,0.3c-0.2,1-0.4,2-0.6,3c-0.1,0.6-0.2,1.1-0.3,1.7c-0.2,0.9-0.3,1.9-0.5,2.8
	c0,0.1,0,0.2,0,0.3c0,0.1,0,0.2,0,0.2c-0.1,0.5-0.2,1-0.2,1.5c-0.2,1.1-0.3,2.1-0.5,3.2c-0.1,0.5-0.2,1-0.2,1.5
	c-0.2,1.2-0.3,2.4-0.5,3.6c0,0.3-0.1,0.5-0.1,0.8c0,0.1,0,0.1,0,0.2c0,0,0,0.1,0,0.1c-0.2,1.5-0.4,3.1-0.5,4.6c0,0,0,0.1,0,0.1
	c0,0,0,0.1,0,0.1c0,0.4-0.1,0.9-0.1,1.3c-0.1,1.1-0.2,2.2-0.3,3.3c0,0.5-0.1,1-0.1,1.5c0,0.1,0,0.1,0,0.2c0,0.1,0,0.2,0,0.2
	c-0.1,1-0.1,1.9-0.2,2.9c0,0.6-0.1,1.2-0.1,1.8c0,1-0.1,2.1-0.1,3.1c0,0.1,0,0.1,0,0.2c0,0.1,0,0.1,0,0.2c0,0.5,0,0.9,0,1.4
	c0,0.5,0,1,0,1.5c0,1.1,0,2.2,0,3.4c0,1.1,0,2.2,0,3.4c0,0.4,0,0.9,0,1.3c0,0,0,0,0,0c0,0,0,0,0,0c0,0.4,0,0.9,0,1.3
	c0,0,0,0.1,0,0.1c0,0,0,0.1,0,0.1c0,1,0.1,2.1,0.1,3.1c0,0.5,0,1,0.1,1.5c0,0.1,0,0.1,0,0.2c0,0.1,0,0.1,0,0.2c0,1,0.1,1.9,0.2,2.9
	c0,0,0,0,0,0c0,0,0,0,0,0c0,0.5,0.1,1,0.1,1.5c0,0.1,0,0.1,0,0.2c0,0.1,0,0.1,0,0.2c0.1,1,0.2,1.9,0.2,2.9c0,0.1,0,0.2,0,0.4
	c0,0.1,0,0.2,0,0.3c0,0.3,0.1,0.6,0.1,0.9c0,0,0,0,0,0c0,0,0,0,0,0c0.1,1.5,0.3,3.1,0.5,4.6c0,0,0,0,0,0c0,0,0,0,0,0
	c0,0.2,0.1,0.5,0.1,0.7c0,0.1,0,0.2,0,0.3c0,0.1,0,0.2,0,0.3c0.1,1.1,0.3,2.3,0.4,3.4c0.1,0.5,0.1,1,0.2,1.4c0,0.1,0,0.1,0,0.2
	c0,0.1,0,0.1,0,0.2c0.1,0.9,0.3,1.8,0.4,2.7c0,0,0,0.1,0,0.1c0,0.1,0,0.1,0,0.2c0.1,0.4,0.1,0.9,0.2,1.3c0,0.1,0,0.2,0,0.2
	c0,0.1,0,0.2,0,0.2c0.2,0.9,0.3,1.8,0.5,2.8c0,0,0,0,0,0c0,0,0,0,0,0c0.1,0.5,0.2,1,0.3,1.5c0.2,1.2,0.5,2.5,0.7,3.7
	c0.1,0.3,0.1,0.5,0.2,0.8c0.3,1.4,0.6,2.9,1,4.3c0,0,0,0.1,0,0.1c0,0,0,0.1,0,0.1c0.1,0.3,0.1,0.5,0.2,0.8c0,0.1,0.1,0.2,0.1,0.3
	c0,0.1,0.1,0.2,0.1,0.4c0.2,0.9,0.4,1.7,0.7,2.6c0,0.1,0,0.1,0,0.2c0,0.1,0,0.1,0,0.2c0.1,0.4,0.2,0.9,0.4,1.3c0,0,0,0,0,0.1
	c0,0,0,0,0,0.1c0.3,0.9,0.5,1.9,0.8,2.8c0.1,0.5,0.3,1,0.4,1.6c0,0,0,0,0,0c0,0,0,0,0,0c0.3,1,0.6,2,0.9,3c0.1,0.5,0.3,0.9,0.4,1.4
	c0.1,0.4,0.2,0.8,0.4,1.1c0.3,0.8,0.5,1.7,0.8,2.5c0.1,0.2,0.1,0.4,0.2,0.6c0,0.1,0.1,0.2,0.1,0.3c0.4,1.3,0.9,2.6,1.4,3.9
	c0.2,0.4,0.3,0.8,0.5,1.3c0,0,0,0.1,0,0.1c0,0,0,0.1,0.1,0.1c0.3,0.9,0.7,1.8,1,2.7c0.2,0.5,0.4,1,0.6,1.5c0.4,0.9,0.7,1.8,1.1,2.7
	c0.2,0.5,0.4,1,0.6,1.5c0.4,1,0.9,2,1.3,3.1c0.1,0.3,0.3,0.6,0.4,0.9c0,0,0,0.1,0.1,0.1c0,0,0,0.1,0.1,0.1c0.6,1.3,1.1,2.5,1.7,3.8
	c0,0,0,0.1,0.1,0.1c0,0,0,0.1,0.1,0.1c0.1,0.3,0.3,0.5,0.4,0.8c0.5,1,1,2.1,1.5,3.1c0.2,0.4,0.4,0.7,0.6,1.1c0,0.1,0.1,0.2,0.1,0.3
	c0.1,0.1,0.1,0.2,0.2,0.3c0.4,0.8,0.8,1.6,1.2,2.3c0.2,0.4,0.4,0.8,0.6,1.2c0,0.1,0.1,0.1,0.1,0.2c0,0.1,0.1,0.2,0.1,0.2
	c0.4,0.8,0.9,1.6,1.3,2.4c0.2,0.4,0.5,0.8,0.7,1.3c0,0,0,0,0,0c0,0,0,0,0,0c0.5,0.9,1.1,1.9,1.6,2.8c0.1,0.2,0.2,0.4,0.3,0.5
	c0.1,0.2,0.2,0.3,0.3,0.5c0,0.1,0.1,0.1,0.1,0.2c0.7,1.2,1.4,2.4,2.2,3.6c0.2,0.3,0.4,0.7,0.6,1c0,0,0,0,0,0c0,0,0,0,0,0.1
	c0.5,0.9,1.1,1.7,1.6,2.6c0,0,0,0,0,0c0,0,0,0,0,0.1c0.2,0.4,0.5,0.7,0.7,1.1c0,0.1,0.1,0.1,0.1,0.2c0,0.1,0.1,0.1,0.1,0.2
	c0.5,0.8,1,1.5,1.5,2.3c0,0,0,0,0,0c0,0,0,0,0,0c0.3,0.4,0.6,0.9,0.9,1.3c0.6,0.8,1.1,1.6,1.7,2.5c0,0.1,0.1,0.1,0.1,0.2
	c0,0.1,0.1,0.1,0.1,0.2c0.2,0.2,0.3,0.5,0.5,0.7c0,0,0,0,0,0.1c0,0,0,0,0,0.1c0.8,1.2,1.7,2.3,2.5,3.5c0,0,0,0,0,0.1
	c0,0,0,0,0.1,0.1c0,0.1,0.1,0.1,0.1,0.2c0.8,1.1,1.6,2.1,2.4,3.2c0,0,0.1,0.1,0.1,0.1c0,0,0,0.1,0.1,0.1c0.2,0.3,0.5,0.6,0.8,1
	c0.6,0.8,1.3,1.6,2,2.5c0.3,0.4,0.6,0.8,0.9,1.2c0.7,0.8,1.3,1.6,2,2.4c0.3,0.4,0.6,0.7,0.9,1.1c0.8,0.9,1.6,1.9,2.4,2.8
	c0.1,0.2,0.3,0.3,0.4,0.5c0,0,0.1,0.1,0.1,0.1c0,0,0,0,0,0c0.2,0.3,0.5,0.6,0.7,0.8c0.6,0.6,1.1,1.2,1.7,1.8c0.3,0.3,0.6,0.7,0.9,1
	c0,0,0,0,0,0c0,0,0,0,0,0c0.5,0.6,1.1,1.1,1.6,1.7c0.2,0.3,0.5,0.5,0.7,0.8c0.1,0.1,0.1,0.1,0.2,0.2c0.1,0.1,0.1,0.1,0.2,0.2
	c0.3,0.4,0.7,0.7,1,1.1c0.3,0.3,0.5,0.5,0.8,0.8l0.2,0.2c0.1,0.1,0.2,0.2,0.3,0.3c0.8,0.8,1.6,1.6,2.5,2.4c0,0,0,0,0,0c0,0,0,0,0,0
	c0.2,0.2,0.5,0.4,0.7,0.7c0,0,0.1,0.1,0.1,0.1c0,0,0,0,0.1,0.1c0.6,0.5,1.1,1.1,1.7,1.6c0,0,0,0,0.1,0c0,0,0,0,0,0
	c0.3,0.3,0.6,0.5,0.9,0.8c0.6,0.6,1.2,1.1,1.9,1.7c0.3,0.2,0.5,0.5,0.8,0.7c0.9,0.8,1.7,1.6,2.6,2.3c0,0,0,0,0,0c0,0,0,0,0,0
	c0.1,0.1,0.2,0.2,0.3,0.3c0.8,0.7,1.5,1.3,2.3,2c0,0,0,0,0.1,0.1c0,0,0,0,0.1,0.1c0.3,0.2,0.5,0.4,0.8,0.7c0.6,0.5,1.3,1.1,2,1.6
	c0.3,0.2,0.6,0.5,0.9,0.7c0.7,0.6,1.5,1.2,2.2,1.8c0.2,0.1,0.4,0.3,0.6,0.4c0,0,0,0,0,0c0,0,0,0,0,0c0.9,0.7,1.9,1.4,2.8,2.1
	c0.2,0.2,0.4,0.3,0.7,0.5c0.7,0.6,1.5,1.1,2.2,1.6c0.3,0.2,0.6,0.5,0.9,0.7c0.7,0.5,1.4,1,2.1,1.5c0.3,0.2,0.6,0.4,0.9,0.6
	c0.9,0.6,1.9,1.3,2.8,1.9c0,0,0,0,0,0c0,0,0,0,0,0c0,0,0.1,0.1,0.1,0.1c1,0.7,2,1.3,3,2c0.3,0.2,0.6,0.4,0.8,0.5c0,0,0,0,0,0
	c0,0,0,0,0,0c0.7,0.4,1.3,0.8,2,1.2c0.1,0,0.2,0.1,0.2,0.1c0.1,0,0.1,0.1,0.2,0.1c0.3,0.2,0.6,0.3,0.8,0.5c0.8,0.5,1.5,0.9,2.3,1.4
	c0.3,0.2,0.5,0.3,0.8,0.5c1,0.6,2,1.2,3,1.8c0,0,0.1,0,0.1,0c0,0,0,0,0.1,0c0.1,0.1,0.3,0.1,0.4,0.2c0.9,0.5,1.8,1,2.7,1.5
	c0.3,0.2,0.6,0.3,0.9,0.5c0,0,0.1,0,0.1,0.1c0,0,0.1,0,0.1,0.1c0.7,0.4,1.3,0.7,2,1.1c0,0,0.1,0.1,0.1,0.1c0,0,0.1,0,0.1,0.1
	c0.3,0.1,0.5,0.3,0.8,0.4c0,0,0,0,0.1,0c0,0,0,0,0.1,0c0.7,0.3,1.3,0.7,2,1c0.2,0.1,0.4,0.2,0.6,0.3c0.1,0,0.2,0.1,0.2,0.1
	c0.1,0.1,0.2,0.1,0.4,0.2c1.1,0.5,2.2,1.1,3.3,1.6c0.3,0.1,0.6,0.3,0.8,0.4c0.8,0.4,1.6,0.8,2.4,1.1c0,0,0,0,0.1,0c0,0,0,0,0.1,0
	c0.3,0.1,0.6,0.3,0.9,0.4c0,0,0.1,0,0.1,0.1c0,0,0.1,0,0.1,0.1c0.7,0.3,1.3,0.6,2,0.9c0.1,0,0.2,0.1,0.2,0.1c0.1,0,0.1,0,0.2,0.1
	c0.3,0.1,0.6,0.2,0.9,0.4c1.1,0.5,2.2,0.9,3.4,1.4c25.1,10.2,52.5,15.8,81.2,15.8c1.1,0,2.3,0,3.4,0c0.3,0,0.7,0,1,0
	c0.9,0,1.7,0,2.6-0.1c0.3,0,0.6,0,0.9,0c1.1,0,2.2-0.1,3.4-0.1c0.2,0,0.3,0,0.5,0c1-0.1,1.9-0.1,2.9-0.2c0.3,0,0.7,0,1-0.1
	c0.9-0.1,1.7-0.1,2.6-0.2c0.3,0,0.5,0,0.8-0.1c1.1-0.1,2.2-0.2,3.3-0.3c0.2,0,0.5-0.1,0.7-0.1c0.9-0.1,1.8-0.2,2.7-0.3
	c0.3,0,0.7-0.1,1-0.1c0.9-0.1,1.8-0.2,2.7-0.3c0.2,0,0.4-0.1,0.7-0.1c1.1-0.2,2.2-0.3,3.3-0.5c0.3,0,0.5-0.1,0.8-0.1
	c0.8-0.1,1.7-0.3,2.5-0.4c0.3-0.1,0.6-0.1,1-0.2c1-0.2,1.9-0.3,2.9-0.5c0.1,0,0.3,0,0.4-0.1c1.1-0.2,2.1-0.4,3.2-0.6
	c0.3-0.1,0.6-0.1,0.9-0.2c0.8-0.2,1.6-0.3,2.4-0.5c0.3-0.1,0.6-0.1,0.9-0.2c1.1-0.2,2.1-0.5,3.2-0.7c0,0,0.1,0,0.1,0
	c1-0.2,2-0.5,3-0.8c0.3-0.1,0.6-0.2,0.9-0.2c0.8-0.2,1.6-0.4,2.4-0.6c0.3-0.1,0.6-0.2,0.8-0.2c1-0.3,2.1-0.6,3.1-0.9
	c0.2,0,0.3-0.1,0.5-0.1c0.9-0.3,1.8-0.5,2.6-0.8c0.3-0.1,0.6-0.2,0.9-0.3c0.8-0.3,1.6-0.5,2.4-0.8c0.2-0.1,0.5-0.2,0.7-0.2
	c1-0.3,2-0.7,3-1c0.2-0.1,0.4-0.2,0.7-0.2c0.8-0.3,1.6-0.6,2.4-0.9c0.3-0.1,0.6-0.2,0.9-0.3c0.8-0.3,1.7-0.6,2.5-1
	c0.2-0.1,0.4-0.1,0.5-0.2c1-0.4,2-0.8,3-1.2c0.3-0.1,0.5-0.2,0.8-0.3c0.8-0.3,1.5-0.6,2.3-1c0.3-0.1,0.6-0.2,0.9-0.4
	c0.9-0.4,1.8-0.8,2.7-1.2c0.1,0,0.2-0.1,0.3-0.1c1-0.4,1.9-0.9,2.9-1.3c0.3-0.1,0.5-0.3,0.8-0.4c0.7-0.3,1.5-0.7,2.2-1.1
	c0.3-0.1,0.5-0.3,0.8-0.4c1-0.5,1.9-0.9,2.8-1.4c0.1,0,0.1-0.1,0.2-0.1c0.9-0.5,1.8-0.9,2.7-1.4c0.3-0.1,0.5-0.3,0.8-0.4
	c0.7-0.4,1.4-0.8,2.1-1.2c0.2-0.1,0.5-0.3,0.7-0.4c0.9-0.5,1.8-1,2.8-1.6c0.2-0.1,0.3-0.2,0.5-0.3c0.8-0.4,1.5-0.9,2.3-1.3
	c0.3-0.2,0.5-0.3,0.8-0.5c0.7-0.4,1.4-0.9,2.1-1.3c0.2-0.1,0.4-0.3,0.6-0.4c0.9-0.6,1.8-1.1,2.7-1.7c0.2-0.1,0.4-0.3,0.6-0.4
	c0.7-0.5,1.4-0.9,2.1-1.4c0.3-0.2,0.5-0.4,0.8-0.5c0.7-0.5,1.5-1,2.2-1.5c0.2-0.1,0.3-0.2,0.5-0.3c0.9-0.6,1.7-1.2,2.6-1.8
	c0.2-0.2,0.5-0.3,0.7-0.5c0.6-0.5,1.3-0.9,1.9-1.4c0.3-0.2,0.5-0.4,0.8-0.6c0.8-0.6,1.5-1.1,2.3-1.7c0.1-0.1,0.2-0.1,0.2-0.2
	c0.8-0.6,1.6-1.3,2.5-1.9c0.2-0.2,0.5-0.4,0.7-0.6c0.6-0.5,1.2-1,1.8-1.5c0.2-0.2,0.5-0.4,0.7-0.6c0.8-0.7,1.6-1.3,2.4-2
	c0.1-0.1,0.2-0.2,0.3-0.3c0.7-0.6,1.4-1.2,2.1-1.8c0.3-0.2,0.5-0.4,0.8-0.7c0.6-0.5,1.1-1,1.7-1.5c0.2-0.2,0.5-0.4,0.7-0.6
	c0.8-0.7,1.5-1.4,2.3-2.1c0.2-0.2,0.4-0.3,0.5-0.5c0.6-0.6,1.2-1.1,1.8-1.7c0.3-0.3,0.5-0.5,0.8-0.8c0.5-0.5,1.1-1.1,1.6-1.6
	c0.2-0.2,0.4-0.4,0.6-0.6c0.7-0.7,1.4-1.4,2.1-2.2c0.2-0.2,0.4-0.5,0.7-0.7C524,504.4,524.5,503.9,525,503.3z"/>
<path class="st2" d="M481.6,463.1c0.2-0.2,0.4-0.4,0.6-0.6c0.4-0.4,0.8-0.8,1.2-1.2c0.1-0.1,0.3-0.3,0.4-0.4c0.5-0.5,1-1.1,1.5-1.6
	c0.2-0.2,0.4-0.4,0.5-0.6c0.3-0.4,0.7-0.8,1-1.1c0.2-0.2,0.4-0.4,0.6-0.7c0.4-0.4,0.8-0.9,1.1-1.3c0.2-0.2,0.3-0.4,0.5-0.6
	c0.4-0.5,0.8-1,1.2-1.4c0.2-0.2,0.4-0.5,0.6-0.7c0.3-0.4,0.6-0.7,0.9-1.1c0.2-0.2,0.4-0.5,0.6-0.7c0.4-0.5,0.8-1,1.2-1.5
	c0.2-0.3,0.4-0.5,0.6-0.8c0.3-0.4,0.6-0.8,0.9-1.2c0.2-0.3,0.4-0.5,0.6-0.8c0.3-0.4,0.5-0.7,0.8-1.1c0.2-0.3,0.4-0.5,0.6-0.8
	c0.4-0.6,0.8-1.1,1.2-1.7c0.2-0.3,0.4-0.5,0.5-0.8c0.2-0.4,0.5-0.7,0.7-1.1c0.2-0.3,0.4-0.6,0.6-0.9c0.2-0.3,0.4-0.7,0.6-1
	c0.2-0.3,0.4-0.6,0.6-0.9c0.4-0.6,0.7-1.1,1-1.7c0.2-0.3,0.4-0.7,0.6-1c0.2-0.3,0.4-0.6,0.6-0.9c0.2-0.3,0.4-0.7,0.6-1
	c0.2-0.3,0.4-0.6,0.5-0.9c0.2-0.3,0.3-0.6,0.5-0.8c0,0,0,0,0,0c12.7-22.7,20-48.9,20-76.8c0-86.9-70.4-157.3-157.3-157.3
	c-4.6,0-9.1,0.2-13.6,0.6c-1.1,0.1-2.2,0.2-3.3,0.3c-0.3,0-0.6,0.1-0.9,0.1c-1,0.1-2,0.2-3,0.4c-0.1,0-0.2,0-0.4,0
	c-1.1,0.1-2.1,0.3-3.2,0.5c-0.3,0.1-0.7,0.1-1,0.2c-0.9,0.1-1.7,0.3-2.6,0.4c-0.2,0-0.5,0.1-0.7,0.1c-1,0.2-2,0.4-3,0.6
	c-0.4,0.1-0.7,0.2-1.1,0.2c-0.8,0.2-1.5,0.3-2.3,0.5c-0.3,0.1-0.6,0.1-1,0.2c-1,0.2-1.9,0.5-2.9,0.7c-0.4,0.1-0.8,0.2-1.2,0.3
	c-0.6,0.2-1.3,0.3-1.9,0.5c-0.4,0.1-0.8,0.2-1.2,0.3c-0.9,0.3-1.8,0.5-2.7,0.8c-0.5,0.1-1,0.3-1.4,0.4c-0.5,0.2-1,0.3-1.5,0.5
	c-0.5,0.2-1,0.3-1.5,0.5c-0.8,0.3-1.6,0.5-2.4,0.8c0,0,0,0,0,0c-0.7,0.3-1.4,0.5-2.2,0.8c-0.3,0.1-0.6,0.2-1,0.4
	c-0.7,0.3-1.3,0.5-2,0.8c-0.4,0.1-0.7,0.3-1.1,0.4c-0.7,0.3-1.3,0.5-1.9,0.8c-0.4,0.1-0.7,0.3-1,0.4c-0.7,0.3-1.3,0.6-2,0.9
	c-0.2,0.1-0.4,0.2-0.6,0.3c-1.4,0.6-2.7,1.2-4,1.9c-0.3,0.2-0.7,0.3-1,0.5c-0.6,0.3-1.2,0.6-1.7,0.9c-0.4,0.2-0.8,0.4-1.2,0.6
	c-0.6,0.3-1.1,0.6-1.7,0.9c-0.4,0.2-0.8,0.5-1.3,0.7c-0.5,0.3-1.1,0.6-1.6,0.9c-0.4,0.2-0.9,0.5-1.3,0.7c-0.5,0.3-1,0.6-1.6,0.9
	c-0.5,0.3-1,0.6-1.5,0.9c-0.8,0.5-1.7,1-2.5,1.5c-0.5,0.3-1,0.6-1.4,0.9c-0.4,0.3-0.8,0.5-1.3,0.8c0,0-0.1,0.1-0.1,0.1
	c0,0-0.1,0.1-0.1,0.1c-0.4,0.3-0.8,0.5-1.2,0.8c-0.4,0.3-0.8,0.6-1.3,0.9c0,0-0.1,0-0.1,0.1c0,0-0.1,0-0.1,0.1
	c-0.4,0.2-0.7,0.5-1.1,0.7c-0.1,0.1-0.1,0.1-0.2,0.1c-0.1,0.1-0.1,0.1-0.2,0.2c-0.3,0.2-0.7,0.5-1,0.7c0,0-0.1,0-0.1,0.1
	c0,0-0.1,0-0.1,0.1c-0.5,0.3-0.9,0.7-1.4,1c-0.4,0.3-0.8,0.6-1.2,0.9c0,0,0,0,0,0c0,0,0,0,0,0c-0.8,0.6-1.6,1.2-2.4,1.8c0,0,0,0,0,0
	c0,0,0,0,0,0c-0.2,0.1-0.4,0.3-0.5,0.4c-0.1,0.1-0.3,0.2-0.4,0.3c-0.1,0.1-0.3,0.2-0.4,0.3c-0.4,0.3-0.8,0.6-1.2,1
	c-0.3,0.3-0.7,0.6-1,0.9c0,0-0.1,0-0.1,0.1c0,0-0.1,0.1-0.1,0.1c-0.4,0.3-0.8,0.7-1.2,1c0,0-0.1,0.1-0.1,0.1c0,0-0.1,0.1-0.1,0.1
	c-0.3,0.3-0.7,0.6-1,0.9c-0.5,0.4-1,0.8-1.4,1.3c-0.3,0.3-0.7,0.6-1,0.9c-0.4,0.4-0.8,0.8-1.3,1.2c-0.1,0.1-0.2,0.2-0.3,0.3
	c-0.1,0.1-0.2,0.2-0.2,0.2c-0.2,0.2-0.4,0.4-0.6,0.6c-0.8,0.7-1.5,1.5-2.3,2.2c0,0,0,0,0,0c0,0,0,0,0,0c-0.2,0.2-0.4,0.4-0.6,0.6
	c0,0,0,0,0,0c0,0,0,0,0,0c-0.5,0.5-1,1-1.5,1.5c0,0-0.1,0.1-0.1,0.1c0,0-0.1,0.1-0.1,0.1c-0.3,0.3-0.5,0.6-0.8,0.8
	c-0.4,0.5-0.9,0.9-1.3,1.4c0,0-0.1,0.1-0.1,0.1c0,0,0,0-0.1,0.1c-0.3,0.3-0.6,0.6-0.8,0.9c-0.5,0.5-0.9,1-1.4,1.5
	c-0.3,0.3-0.6,0.6-0.8,0.9c0,0,0,0,0,0c0,0,0,0,0,0c-0.5,0.6-1,1.2-1.5,1.8c-0.2,0.2-0.4,0.5-0.6,0.7c0,0,0,0,0,0c0,0,0,0,0,0
	c-0.7,0.8-1.4,1.7-2.1,2.5c-0.1,0.2-0.3,0.3-0.4,0.5c0,0-0.1,0.1-0.1,0.1c0,0.1-0.1,0.1-0.1,0.2c-0.5,0.6-0.9,1.2-1.4,1.8
	c-0.2,0.3-0.4,0.6-0.7,0.9c0,0,0,0,0,0.1c0,0,0,0,0,0.1c-0.4,0.6-0.8,1.1-1.3,1.7c-0.2,0.3-0.5,0.6-0.7,1c0,0,0,0,0,0c0,0,0,0,0,0
	c-0.4,0.6-0.8,1.2-1.2,1.7c-0.2,0.3-0.4,0.6-0.7,0.9c-0.5,0.7-0.9,1.3-1.3,2c0,0.1-0.1,0.1-0.1,0.2c-0.1,0.1-0.1,0.2-0.2,0.3
	c-0.1,0.1-0.1,0.2-0.2,0.3c0,0,0,0,0,0.1c0,0,0,0,0,0.1c-0.6,0.9-1.2,1.8-1.8,2.7c-0.1,0.2-0.3,0.4-0.4,0.7
	c-0.4,0.7-0.9,1.4-1.3,2.1c0,0,0,0,0,0c0,0,0,0,0,0.1c-0.1,0.2-0.3,0.5-0.4,0.7c0,0.1-0.1,0.1-0.1,0.2c0,0.1-0.1,0.1-0.1,0.2
	c-0.3,0.6-0.7,1.2-1,1.7c-0.2,0.3-0.4,0.7-0.6,1c0,0,0,0,0,0c0,0,0,0,0,0c-0.4,0.6-0.7,1.3-1.1,2c0,0,0,0,0,0c0,0,0,0,0,0
	c-0.2,0.3-0.3,0.6-0.5,0.9c-0.4,0.7-0.8,1.5-1.2,2.2c0,0.1-0.1,0.1-0.1,0.2c0,0.1-0.1,0.1-0.1,0.2c-0.1,0.1-0.1,0.2-0.2,0.4
	c-0.5,1-1,2-1.5,3c-0.1,0.2-0.2,0.5-0.4,0.7c-0.4,0.7-0.7,1.5-1.1,2.2c0,0,0,0,0,0.1c0,0,0,0,0,0.1c-0.1,0.3-0.3,0.7-0.4,1
	c-0.3,0.7-0.6,1.4-0.9,2.1c0,0,0,0,0,0c0,0,0,0,0,0c-0.2,0.4-0.3,0.7-0.5,1.1c-0.3,0.7-0.6,1.4-0.9,2.1c-0.1,0.3-0.3,0.7-0.4,1
	c-0.3,0.8-0.6,1.6-0.9,2.4c0,0.1-0.1,0.2-0.1,0.3l0,0.1c0,0.1-0.1,0.2-0.1,0.3c-0.4,1.1-0.8,2.1-1.1,3.2c-0.1,0.3-0.2,0.6-0.3,0.8
	c-0.3,0.8-0.5,1.6-0.8,2.4c-0.1,0.4-0.2,0.7-0.4,1.1c-0.2,0.7-0.4,1.4-0.6,2.1c0,0,0,0.1,0,0.1c0,0,0,0.1,0,0.1
	c-0.1,0.4-0.2,0.7-0.3,1.1c-0.2,0.8-0.4,1.5-0.6,2.3c-0.1,0.4-0.2,0.7-0.3,1.1c-0.3,1-0.5,2-0.8,3c0,0,0,0,0,0
	c0,0.1-0.1,0.2-0.1,0.3c0,0.2-0.1,0.4-0.1,0.6c-0.2,0.9-0.4,1.8-0.6,2.6c0,0,0,0.1,0,0.1c0,0,0,0.1,0,0.1c0,0.2-0.1,0.4-0.1,0.6
	c0,0.1,0,0.2-0.1,0.3c0,0.1,0,0.1,0,0.2c-0.2,0.7-0.3,1.5-0.5,2.2c-0.1,0.4-0.2,0.8-0.2,1.2c-0.1,0.7-0.3,1.4-0.4,2.1
	c0,0.1,0,0.1,0,0.2c0,0.1,0,0.1,0,0.2c-0.1,0.4-0.1,0.7-0.2,1.1c-0.1,0.8-0.3,1.6-0.4,2.3c-0.1,0.4-0.1,0.7-0.2,1.1
	c-0.1,0.9-0.2,1.8-0.4,2.6c0,0.2-0.1,0.4-0.1,0.6c0,0.1,0,0.1,0,0.2c0,0,0,0,0,0.1c-0.1,1.1-0.3,2.2-0.4,3.4c0,0,0,0.1,0,0.1
	c0,0,0,0.1,0,0.1c0,0.3-0.1,0.7-0.1,1c-0.1,0.8-0.1,1.6-0.2,2.4c0,0.4-0.1,0.8-0.1,1.1c0,0.1,0,0.1,0,0.2c0,0.1,0,0.1,0,0.2
	c0,0.7-0.1,1.4-0.1,2.1c0,0.4,0,0.9-0.1,1.3c0,0.8-0.1,1.5-0.1,2.3c0,0.1,0,0.1,0,0.2c0,0,0,0.1,0,0.1c0,0.3,0,0.7,0,1
	c0,0.4,0,0.7,0,1.1c0,0.8,0,1.6,0,2.5c0,0.8,0,1.6,0,2.5c0,0.3,0,0.7,0,1c0,0,0,0,0,0c0,0,0,0,0,0c0,0.3,0,0.6,0,1c0,0,0,0.1,0,0.1
	c0,0,0,0.1,0,0.1c0,0.8,0,1.5,0.1,2.3c0,0.4,0,0.7,0.1,1.1c0,0,0,0.1,0,0.1c0,0.1,0,0.1,0,0.2c0,0.7,0.1,1.4,0.1,2.1c0,0,0,0,0,0
	c0,0,0,0,0,0c0,0.4,0,0.7,0.1,1.1c0,0,0,0.1,0,0.1c0,0,0,0.1,0,0.1c0.1,0.7,0.1,1.4,0.2,2.1c0,0.1,0,0.2,0,0.3c0,0.1,0,0.1,0,0.2
	c0,0.2,0,0.5,0.1,0.7c0,0,0,0,0,0c0,0,0,0,0,0c0.1,1.1,0.2,2.2,0.4,3.3c0,0,0,0,0,0c0,0,0,0,0,0c0,0.2,0,0.3,0.1,0.5
	c0,0.1,0,0.1,0,0.2c0,0.1,0,0.1,0,0.2c0.1,0.8,0.2,1.7,0.3,2.5c0,0.3,0.1,0.7,0.1,1c0,0,0,0.1,0,0.1c0,0,0,0.1,0,0.1
	c0.1,0.7,0.2,1.3,0.3,2c0,0,0,0.1,0,0.1c0,0,0,0.1,0,0.1c0.1,0.3,0.1,0.6,0.2,0.9c0,0.1,0,0.1,0,0.2c0,0.1,0,0.1,0,0.2
	c0.1,0.7,0.2,1.3,0.4,2c0,0,0,0,0,0c0,0,0,0,0,0c0.1,0.4,0.1,0.7,0.2,1.1c0.2,0.9,0.4,1.8,0.5,2.7c0,0.2,0.1,0.4,0.1,0.6
	c0.2,1.1,0.5,2.1,0.7,3.2c0,0,0,0.1,0,0.1c0,0,0,0.1,0,0.1c0,0.2,0.1,0.4,0.1,0.6c0,0.1,0,0.2,0.1,0.3c0,0.1,0,0.2,0.1,0.3
	c0.2,0.6,0.3,1.3,0.5,1.9c0,0,0,0.1,0,0.1c0,0,0,0.1,0,0.1c0.1,0.3,0.2,0.6,0.3,1c0,0,0,0,0,0.1c0,0,0,0,0,0c0.2,0.7,0.4,1.4,0.6,2
	c0.1,0.4,0.2,0.8,0.3,1.1c0,0,0,0,0,0c0,0,0,0,0,0c0.2,0.7,0.4,1.4,0.6,2.2c0.1,0.3,0.2,0.7,0.3,1c0.1,0.3,0.2,0.6,0.3,0.8
	c0.2,0.6,0.4,1.2,0.6,1.8c0.1,0.2,0.1,0.3,0.2,0.5c0,0.1,0.1,0.2,0.1,0.2c0.3,1,0.7,1.9,1,2.8c0.1,0.3,0.2,0.6,0.3,0.9
	c0,0,0,0.1,0,0.1c0,0,0,0.1,0,0.1c0.2,0.7,0.5,1.3,0.7,2c0.1,0.4,0.3,0.7,0.4,1.1c0.3,0.7,0.5,1.3,0.8,2c0.1,0.4,0.3,0.7,0.4,1.1
	c0.3,0.7,0.6,1.5,1,2.2c0.1,0.2,0.2,0.5,0.3,0.7c0,0,0,0.1,0,0.1c0,0,0,0.1,0,0.1c0.4,0.9,0.8,1.8,1.2,2.7c0,0,0,0.1,0,0.1
	c0,0,0,0.1,0,0.1c0.1,0.2,0.2,0.4,0.3,0.6c0.4,0.8,0.7,1.5,1.1,2.3c0.1,0.3,0.3,0.5,0.4,0.8c0,0.1,0.1,0.1,0.1,0.2
	c0,0.1,0.1,0.2,0.1,0.2c0.3,0.6,0.6,1.1,0.9,1.7c0.2,0.3,0.3,0.6,0.5,0.9c0,0.1,0.1,0.1,0.1,0.2c0,0.1,0.1,0.1,0.1,0.2
	c0.3,0.6,0.6,1.2,0.9,1.8c0.2,0.3,0.3,0.6,0.5,0.9c0,0,0,0,0,0c0,0,0,0,0,0c0.4,0.7,0.8,1.4,1.2,2.1c0.1,0.1,0.1,0.3,0.2,0.4
	c0.1,0.1,0.1,0.2,0.2,0.4c0,0,0.1,0.1,0.1,0.1c0.5,0.9,1,1.8,1.6,2.6c0.2,0.3,0.3,0.5,0.5,0.8c0,0,0,0,0,0c0,0,0,0,0,0
	c0.4,0.6,0.8,1.3,1.2,1.9c0,0,0,0,0,0c0,0,0,0,0,0c0.2,0.3,0.3,0.5,0.5,0.8c0,0,0.1,0.1,0.1,0.1c0,0,0.1,0.1,0.1,0.1
	c0.4,0.6,0.7,1.1,1.1,1.7c0,0,0,0,0,0c0,0,0,0,0,0c0.2,0.3,0.4,0.6,0.6,0.9c0.4,0.6,0.8,1.2,1.2,1.8c0,0,0.1,0.1,0.1,0.1
	c0,0,0.1,0.1,0.1,0.1c0.1,0.2,0.3,0.4,0.4,0.5c0,0,0,0,0,0c0,0,0,0,0,0c0.6,0.9,1.2,1.7,1.8,2.5c0,0,0,0,0,0c0,0,0,0,0,0.1
	c0,0,0.1,0.1,0.1,0.1c0.6,0.8,1.2,1.5,1.7,2.3c0,0,0,0.1,0.1,0.1c0,0,0,0,0.1,0.1c0.2,0.2,0.4,0.5,0.5,0.7c0.5,0.6,0.9,1.2,1.4,1.8
	c0.2,0.3,0.5,0.6,0.7,0.8c0.5,0.6,1,1.2,1.4,1.7c0.2,0.3,0.4,0.5,0.6,0.8c0.6,0.7,1.2,1.4,1.8,2c0.1,0.1,0.2,0.2,0.3,0.3
	c0,0,0.1,0.1,0.1,0.1c0,0,0,0,0,0c0.2,0.2,0.4,0.4,0.5,0.6c0.4,0.4,0.8,0.9,1.2,1.3c0.2,0.2,0.4,0.5,0.7,0.7c0,0,0,0,0,0
	c0,0,0,0,0,0c0.4,0.4,0.8,0.8,1.2,1.2c0.2,0.2,0.4,0.4,0.5,0.6c0,0,0.1,0.1,0.1,0.1c0,0,0.1,0.1,0.1,0.1c0.3,0.3,0.5,0.5,0.8,0.8
	c0.2,0.2,0.4,0.4,0.6,0.6l0.1,0.1c0.1,0.1,0.1,0.1,0.2,0.2c0.6,0.6,1.2,1.2,1.8,1.8c0,0,0,0,0,0c0,0,0,0,0,0
	c0.2,0.2,0.3,0.3,0.5,0.5c0,0,0,0,0.1,0.1c0,0,0,0,0.1,0.1c0.4,0.4,0.8,0.8,1.2,1.2c0,0,0,0,0,0c0,0,0,0,0,0
	c0.2,0.2,0.4,0.4,0.6,0.6c0.5,0.4,0.9,0.8,1.4,1.3c0.2,0.2,0.4,0.4,0.6,0.5c0.6,0.6,1.3,1.1,1.9,1.7c0,0,0,0,0,0c0,0,0,0,0,0
	c0.1,0.1,0.2,0.1,0.2,0.2c0.6,0.5,1.1,1,1.7,1.4c0,0,0,0,0.1,0c0,0,0,0,0.1,0c0.2,0.2,0.4,0.3,0.6,0.5c0.5,0.4,0.9,0.8,1.4,1.2
	c0.2,0.2,0.4,0.4,0.7,0.5c0.5,0.4,1.1,0.9,1.6,1.3c0.1,0.1,0.3,0.2,0.4,0.3c0,0,0,0,0,0c0,0,0,0,0,0c0.7,0.5,1.4,1,2,1.6
	c0.2,0.1,0.3,0.2,0.5,0.4c0.5,0.4,1.1,0.8,1.6,1.2c0.2,0.2,0.5,0.3,0.7,0.5c0.5,0.4,1,0.7,1.5,1.1c0.2,0.1,0.4,0.3,0.6,0.4
	c0.7,0.5,1.4,0.9,2,1.4c0,0,0,0,0,0c0,0,0,0,0,0c0,0,0.1,0,0.1,0.1c0.7,0.5,1.5,1,2.2,1.4c0.2,0.1,0.4,0.3,0.6,0.4c0,0,0,0,0,0
	c0,0,0,0,0,0c0.5,0.3,1,0.6,1.4,0.9c0.1,0,0.1,0.1,0.2,0.1c0,0,0.1,0,0.1,0.1c0.2,0.1,0.4,0.2,0.6,0.4c0.6,0.3,1.1,0.7,1.7,1
	c0.2,0.1,0.4,0.2,0.6,0.4c0.7,0.4,1.5,0.9,2.2,1.3c0,0,0,0,0.1,0c0,0,0,0,0,0c0.1,0.1,0.2,0.1,0.3,0.2c0.7,0.4,1.3,0.7,2,1.1
	c0.2,0.1,0.4,0.2,0.7,0.4c0,0,0,0,0.1,0c0,0,0.1,0,0.1,0.1c0.5,0.3,1,0.5,1.5,0.8c0,0,0.1,0,0.1,0.1c0,0,0.1,0,0.1,0.1
	c0.2,0.1,0.4,0.2,0.6,0.3c0,0,0,0,0.1,0c0,0,0,0,0.1,0c0.5,0.2,1,0.5,1.5,0.7c0.1,0.1,0.3,0.1,0.4,0.2c0.1,0,0.1,0.1,0.2,0.1
	c0.1,0,0.2,0.1,0.3,0.1c0.8,0.4,1.6,0.8,2.4,1.2c0.2,0.1,0.4,0.2,0.6,0.3c0.6,0.3,1.2,0.5,1.8,0.8c0,0,0,0,0,0c0,0,0,0,0,0
	c0.2,0.1,0.4,0.2,0.7,0.3c0,0,0.1,0,0.1,0c0,0,0.1,0,0.1,0c0.5,0.2,1,0.4,1.5,0.6c0.1,0,0.1,0.1,0.2,0.1c0,0,0.1,0,0.1,0
	c0.2,0.1,0.4,0.2,0.6,0.3c0.8,0.3,1.6,0.7,2.4,1c18.3,7.4,38.3,11.5,59.2,11.5c0.8,0,1.7,0,2.5,0c0.2,0,0.5,0,0.7,0
	c0.6,0,1.2,0,1.9,0c0.2,0,0.5,0,0.7,0c0.8,0,1.6-0.1,2.4-0.1c0.1,0,0.2,0,0.3,0c0.7,0,1.4-0.1,2.1-0.1c0.2,0,0.5,0,0.7-0.1
	c0.6,0,1.3-0.1,1.9-0.1c0.2,0,0.4,0,0.6,0c0.8-0.1,1.6-0.1,2.4-0.2c0.2,0,0.3,0,0.5-0.1c0.6-0.1,1.3-0.1,1.9-0.2
	c0.2,0,0.5-0.1,0.7-0.1c0.7-0.1,1.3-0.2,1.9-0.3c0.2,0,0.3,0,0.5-0.1c0.8-0.1,1.6-0.2,2.4-0.3c0.2,0,0.4-0.1,0.6-0.1
	c0.6-0.1,1.2-0.2,1.8-0.3c0.2,0,0.5-0.1,0.7-0.1c0.7-0.1,1.4-0.2,2.1-0.4c0.1,0,0.2,0,0.3-0.1c0.8-0.1,1.6-0.3,2.3-0.5
	c0.2,0,0.4-0.1,0.6-0.1c0.6-0.1,1.2-0.3,1.8-0.4c0.2,0,0.4-0.1,0.7-0.2c0.8-0.2,1.5-0.4,2.3-0.5c0,0,0.1,0,0.1,0
	c0.7-0.2,1.5-0.4,2.2-0.6c0.2-0.1,0.4-0.1,0.7-0.2c0.6-0.2,1.2-0.3,1.7-0.5c0.2-0.1,0.4-0.1,0.6-0.2c0.8-0.2,1.5-0.4,2.3-0.7
	c0.1,0,0.2-0.1,0.3-0.1c0.6-0.2,1.3-0.4,1.9-0.6c0.2-0.1,0.4-0.1,0.7-0.2c0.6-0.2,1.2-0.4,1.8-0.6c0.2-0.1,0.4-0.1,0.5-0.2
	c0.7-0.2,1.5-0.5,2.2-0.8c0.2-0.1,0.3-0.1,0.5-0.2c0.6-0.2,1.2-0.4,1.8-0.6c0.2-0.1,0.4-0.2,0.7-0.2c0.6-0.2,1.2-0.5,1.8-0.7
	c0.1-0.1,0.3-0.1,0.4-0.2c0.7-0.3,1.4-0.6,2.2-0.9c0.2-0.1,0.4-0.2,0.6-0.2c0.6-0.2,1.1-0.5,1.7-0.7c0.2-0.1,0.4-0.2,0.6-0.3
	c0.7-0.3,1.3-0.6,1.9-0.9c0.1,0,0.1-0.1,0.2-0.1c0.7-0.3,1.4-0.6,2.1-1c0.2-0.1,0.4-0.2,0.6-0.3c0.5-0.3,1.1-0.5,1.6-0.8
	c0.2-0.1,0.4-0.2,0.6-0.3c0.7-0.3,1.4-0.7,2.1-1c0,0,0.1,0,0.1-0.1c0.6-0.3,1.3-0.7,1.9-1c0.2-0.1,0.4-0.2,0.6-0.3
	c0.5-0.3,1-0.6,1.6-0.8c0.2-0.1,0.4-0.2,0.5-0.3c0.7-0.4,1.3-0.8,2-1.1c0.1-0.1,0.2-0.1,0.3-0.2c0.6-0.3,1.1-0.7,1.7-1
	c0.2-0.1,0.4-0.2,0.6-0.4c0.5-0.3,1-0.6,1.5-0.9c0.2-0.1,0.3-0.2,0.5-0.3c0.6-0.4,1.3-0.8,1.9-1.2c0.1-0.1,0.3-0.2,0.4-0.3
	c0.5-0.3,1-0.7,1.5-1c0.2-0.1,0.4-0.3,0.6-0.4c0.5-0.4,1.1-0.7,1.6-1.1c0.1-0.1,0.2-0.2,0.3-0.2c0.6-0.4,1.2-0.9,1.9-1.3
	c0.2-0.1,0.3-0.2,0.5-0.4c0.5-0.3,0.9-0.7,1.4-1c0.2-0.1,0.4-0.3,0.6-0.4c0.6-0.4,1.1-0.8,1.7-1.3c0.1,0,0.1-0.1,0.2-0.1
	c0.6-0.5,1.2-0.9,1.8-1.4c0.2-0.1,0.4-0.3,0.5-0.4c0.4-0.4,0.9-0.7,1.3-1.1c0.2-0.1,0.4-0.3,0.5-0.4c0.6-0.5,1.2-1,1.7-1.4
	c0.1-0.1,0.2-0.1,0.2-0.2c0.5-0.4,1-0.9,1.5-1.3c0.2-0.2,0.4-0.3,0.6-0.5c0.4-0.4,0.8-0.7,1.2-1.1c0.2-0.2,0.3-0.3,0.5-0.5
	c0.6-0.5,1.1-1,1.6-1.5c0.1-0.1,0.3-0.2,0.4-0.4c0.4-0.4,0.9-0.8,1.3-1.2c0.2-0.2,0.4-0.4,0.6-0.5c0.4-0.4,0.8-0.8,1.2-1.2
	c0.2-0.2,0.3-0.3,0.5-0.5c0.5-0.5,1-1,1.6-1.6c0.2-0.2,0.3-0.3,0.5-0.5C480.9,463.9,481.2,463.5,481.6,463.1z"/>
</svg>
