<?xml version="1.0" encoding="utf-8"?>
<!-- Generator: Adobe Illustrator 22.1.0, SVG Export Plug-In . SVG Version: 6.00 Build 0)  -->
<svg version="1.1" id="Layer_1" xmlns="http://www.w3.org/2000/svg" xmlns:xlink="http://www.w3.org/1999/xlink" x="0px" y="0px"
	 viewBox="0 0 225 217.5" style="enable-background:new 0 0 225 217.5;" xml:space="preserve">
<style type="text/css">
	.st0{fill:#FFFFFF;}
</style>
<g>
	<path class="st0" d="M150.6,1064.7h25.1v-12.9c0-1.4-1.4-2.6-3-2.6h-50.1c-2.6,0-4.7-2.1-4.7-4.7v-7.7c0-2.6,2.1-4.7,4.7-4.7h37.1
		c1.8,0,3-1.4,3.2-2.6l0.2-28.1c0.2-1.2-0.8-2.6-2.6-2.6h-37.8c-2.6,0-4.7-2.1-4.7-4.7v-6.5c0-2.6,2.1-4.7,4.7-4.7h43.2
		c4.2,0,7.7-3.4,7.7-7.7v-13.7h-29.3c-1.1,0-1.9-0.9-1.9-1.9c0-1.1,0.9-1.9,1.9-1.9h29.3v-8c0-1.4-1.4-2.8-3.2-2.8H83.8
		c-4.1,0-7.5,3.3-7.5,7.5v57.2h23c1.1,0,1.9,0.9,1.9,1.9c0,1.1-0.9,1.9-1.9,1.9h-23v65.6c0,1.2,0.4,2.3,1.2,3.2c0.6,0.6,1.3,1,2,1
		h93.2c1.6,0,3-1.4,3-2.8v-13.9h-25.1c-1.1,0-1.9-0.9-1.9-1.9C148.7,1065.6,149.6,1064.7,150.6,1064.7z"/>
	<path class="st0" d="M210.4,1070.6c0,1.1-0.9,1.9-1.9,1.9h-65.6c-1.1,0-1.9-0.9-1.9-1.9v-7.8c0-1.1,0.9-1.9,1.9-1.9h39
		c0.5,0,1,0.2,1.4,0.6c0.4,0.4,0.6,0.8,0.6,1.4c0,1.1-0.9,2-1.9,2h-31.2c-1.1,0-1.9,0.9-1.9,1.9c0,1.1,0.9,1.9,1.9,1.9h57.8
		c0.5,0,1,0.2,1.4,0.6C210.2,1069.5,210.4,1070,210.4,1070.6z"/>
	<path class="st0" d="M109.1,1009.7v7.8c0,1.1-0.9,1.9-1.9,1.9h-39c-0.5,0-1-0.2-1.4-0.6c-0.4-0.4-0.6-0.8-0.6-1.4
		c0-1.1,0.9-2,1.9-2h31.2c1.1,0,1.9-0.9,1.9-1.9c0-1.1-0.9-1.9-1.9-1.9H41.5c-0.5,0-1-0.2-1.4-0.6c-0.4-0.4-0.6-0.8-0.6-1.4
		c0-1.1,0.9-1.9,1.9-1.9h65.6C108.2,1007.7,109.1,1008.6,109.1,1009.7z"/>
	<path class="st0" d="M189.5,955.8c0,0.5-0.2,1-0.6,1.4c-0.4,0.3-0.8,0.6-1.4,0.6h-39.3c-1.1,0-1.9,0.9-1.9,1.9
		c0,1.1,0.9,1.9,1.9,1.9h31.2c1.1,0,1.9,0.9,1.9,2c0,0.5-0.2,1-0.6,1.4c-0.3,0.4-0.8,0.6-1.4,0.6h-39c-1.1,0-1.9-0.9-1.9-1.9v-7.8
		c0-1.1,0.9-1.9,1.9-1.9h47.1C188.6,953.9,189.5,954.7,189.5,955.8z"/>
</g>
<g>
	<path class="st0" d="M137.4,159.1h25.1v-12.9c0-1.4-1.4-2.6-3-2.6h-50.1c-2.6,0-4.7-2.1-4.7-4.7v-7.7c0-2.6,2.1-4.7,4.7-4.7h37.1
		c1.8,0,3-1.4,3.2-2.6l0.2-28.1c0.2-1.2-0.8-2.6-2.6-2.6h-37.8c-2.6,0-4.7-2.1-4.7-4.7v-6.5c0-2.6,2.1-4.7,4.7-4.7h43.2
		c4.2,0,7.7-3.4,7.7-7.7V56H131c-1.1,0-1.9-0.9-1.9-1.9c0-1.1,0.9-1.9,1.9-1.9h29.3v-8c0-1.4-1.4-2.8-3.2-2.8H70.5
		c-4.1,0-7.5,3.3-7.5,7.5V106h23c1.1,0,1.9,0.9,1.9,1.9c0,1.1-0.9,1.9-1.9,1.9h-23v65.6c0,1.2,0.4,2.3,1.2,3.2c0.6,0.6,1.3,1,2,1
		h93.2c1.6,0,3-1.4,3-2.8V163h-25.1c-1.1,0-1.9-0.9-1.9-1.9C135.5,160,136.3,159.1,137.4,159.1z"/>
	<path class="st0" d="M168.2,164.9c0,1.1-0.9,1.9-1.9,1.9h-36.7c-1.1,0-1.9-0.9-1.9-1.9v-7.8c0-1.1,0.9-1.9,1.9-1.9h39
		c0.5,0,1,0.2,1.4,0.6c0.4,0.4,0.6,0.8,0.6,1.4c0,1.1-0.9,2-1.9,2h-31.2c-1.1,0-1.9,0.9-1.9,1.9c0,1.1,0.9,1.9,1.9,1.9h28.9
		c0.5,0,1,0.2,1.4,0.6C168,163.9,168.2,164.4,168.2,164.9z"/>
	<path class="st0" d="M95.8,104.1v7.8c0,1.1-0.9,1.9-1.9,1.9h-39c-0.5,0-1-0.2-1.4-0.6c-0.4-0.4-0.6-0.8-0.6-1.4c0-1.1,0.9-2,1.9-2
		h31.2c1.1,0,1.9-0.9,1.9-1.9c0-1.1-0.9-1.9-1.9-1.9H56.5c-0.5,0-1-0.2-1.4-0.6c-0.4-0.4-0.6-0.8-0.6-1.4c0-1.1,0.9-1.9,1.9-1.9
		h37.4C95,102.1,95.8,103,95.8,104.1z"/>
	<path class="st0" d="M166.2,50.2c0,0.5-0.2,1-0.6,1.4c-0.4,0.3-0.8,0.6-1.4,0.6H135c-1.1,0-1.9,0.9-1.9,1.9c0,1.1,0.9,1.9,1.9,1.9
		h28.2c1.1,0,1.9,0.9,1.9,2c0,0.5-0.2,1-0.6,1.4c-0.3,0.4-0.8,0.6-1.4,0.6h-36c-1.1,0-1.9-0.9-1.9-1.9v-7.8c0-1.1,0.9-1.9,1.9-1.9
		h37C165.3,48.2,166.2,49.1,166.2,50.2z"/>
</g>
<path class="st0" d="M183.1,52.1h-22.7c-1.1,0-1.9-0.9-1.9-1.9v0c0-1.1,0.9-1.9,1.9-1.9h22.7c1.1,0,1.9,0.9,1.9,1.9v0
	C185.1,51.2,184.2,52.1,183.1,52.1z"/>
<path class="st0" d="M183.7,59.9h-22.7c-1.1,0-1.9-0.9-1.9-1.9v0c0-1.1,0.9-1.9,1.9-1.9h22.7c1.1,0,1.9,0.9,1.9,1.9v0
	C185.6,59.1,184.8,59.9,183.7,59.9z"/>
<path class="st0" d="M58.4,106H41.3c-1.1,0-2-0.9-2-2l0,0c0-1.1,0.9-2,2-2h17.1c1.1,0,2,0.9,2,2l0,0C60.3,105.1,59.4,106,58.4,106z"
	/>
<path class="st0" d="M60.5,113.8H29.7c-1.1,0-2-0.9-2-2v0c0-1.1,0.9-2,2-2h30.8c1.1,0,2,0.9,2,2v0C62.5,112.9,61.6,113.8,60.5,113.8
	z"/>
<path class="st0" d="M188.4,159.1h-22.3c-1.1,0-1.9-0.9-1.9-1.9l0,0c0-1.1,0.9-1.9,1.9-1.9h22.3c1.1,0,1.9,0.9,1.9,1.9l0,0
	C190.3,158.2,189.5,159.1,188.4,159.1z"/>
<path class="st0" d="M185.8,166.9h-22.3c-1.1,0-1.9-0.9-1.9-1.9v0c0-1.1,0.9-1.9,1.9-1.9h22.3c1.1,0,1.9,0.9,1.9,1.9v0
	C187.8,166,186.9,166.9,185.8,166.9z"/>
</svg>
