<?xml version="1.0" encoding="utf-8"?>
<!-- Generator: Adobe Illustrator 22.1.0, SVG Export Plug-In . SVG Version: 6.00 Build 0)  -->
<svg version="1.1" id="Layer_1" xmlns="http://www.w3.org/2000/svg" xmlns:xlink="http://www.w3.org/1999/xlink" x="0px" y="0px"
	viewBox="0 0 912.1 468" style="enable-background:new 0 0 912.1 468;" xml:space="preserve">
<style type="text/css">
 .st0{fill:#FFFFFF;}
 .st1{fill:#161E2B;}
</style>
<path class="st0" d="M661.1,243.2c0,54-22,103.1-57.5,138.8l-0.4,0.4c-3.6,3.6-7.4,7.1-11.3,10.5h-30.7c-3,0-5.4,2.4-5.4,5.4
 c0,3,2.4,5.4,5.4,5.4h16.8c-5.5,3.9-11.1,7.5-17,10.9c-28.7,16.3-61.8,25.7-97,25.7c-35.8,0-69.4-9.7-98.4-26.5
 c-4.8-2.8-9.5-5.8-14-9h41.1c2.5,0,4.5-2,4.5-4.5c0-2.5-2-4.5-4.5-4.5h-52.9c-3.5-2.9-6.9-5.9-10.2-9c-1.6-1.5-3.1-2.9-4.6-4.4
 c-35.7-35.7-57.9-85-57.9-139.1s22.2-103.4,57.9-139.1c35.7-35.7,85-57.9,139.1-57.9C572.5,46.2,661.1,134.9,661.1,243.2z"/>
<path class="st0" d="M415.1,391.2v18c0,2.5-2,4.5-4.5,4.5H346c-1.3,0-2.4-0.5-3.2-1.3c-0.8-0.8-1.3-1.9-1.3-3.1c0-2.5,2-4.5,4.5-4.5
 h46.7c2.5,0,4.5-2,4.5-4.5c0-2.5-2-4.5-4.5-4.5h-87c-1.3,0-2.4-0.5-3.2-1.3c-0.8-0.8-1.3-1.9-1.3-3.2c0-2.5,2-4.5,4.5-4.5h104.9
 C413.1,386.8,415.1,388.8,415.1,391.2z"/>
<path class="st0" d="M622.1,387.4c0,1.5-0.6,2.9-1.6,3.8c-1,1-2.3,1.6-3.8,1.6h-55.4c-3,0-5.4,2.4-5.4,5.4c0,3,2.4,5.4,5.4,5.4H581
 c3,0,5.4,2.4,5.4,5.4c0,1.5-0.6,2.8-1.6,3.8c-1,1-2.3,1.6-3.8,1.6h-41.4c-3,0-5.4-2.4-5.4-5.4v-21.7c0-3,2.4-5.4,5.4-5.4h77.1
 C619.7,382,622.1,384.4,622.1,387.4z"/>
<path class="st0" d="M286.1,261.9h-68.8c-6,0-10.9-3.9-10.9-8.8v-1.9c0-4.9,4.9-8.8,10.9-8.8h7.9c3,0,5.8-1,7.7-2.6
 c2-1.6,3.2-3.8,3.2-6.2c0-4.9-4.9-8.8-10.9-8.8h-8.9c-6,0-10.9-3.9-10.9-8.8v-1.9c0-4.9,4.9-8.8,10.9-8.8h4.9c6,0,10.9-3.9,10.9-8.8
 v-0.3c0-4.9-4.9-8.8-10.9-8.8h-5.5c-6,0-10.9-3.9-10.9-8.8v-1.9c0-4.9,4.9-8.8,10.9-8.8h67.1c-1.2,6.2-2.1,12.5-2.7,19
 c-0.7,6.9-1,14-1,21.2C279.1,227.2,281.5,245.2,286.1,261.9z"/>
<path class="st0" d="M732.4,213.8v1.9c0,4.9-4.9,8.8-14.9,8.4h-9c-2,0.4-6.9,4.4-6.9,9.2v0.3c0,4.9,4.9,8.8,10.9,8.8h12.4
 c6,0,10.9,3.9,10.9,8.8v1.9c0,4.9-4.9,8.8-10.9,8.8h-80c-0.2,0-0.5,0-0.7,0c-0.2,0-0.5,0-0.7-0.1c-0.2,0-0.4,0-0.6-0.1
 c-0.2,0-0.5-0.1-0.7-0.1c4.5-16.6,6.9-34.5,6.9-53.6c0-7.3-0.3-14.5-1-21.4v0c-0.6-6.4-1.5-12.7-2.7-18.8h83.3
 c6,0,10.9,3.9,10.9,8.8v1.9c0,4.9-4.9,8.8-10.9,8.8h-20.1c-3,0-5.7,1-7.7,2.6c-2,1.6-3.2,3.8-3.2,6.2c0,4.9,4.9,8.8,10.9,8.8h13.1
 C727.5,205,732.4,208.9,732.4,213.8z"/>
<path id="big-1" class="st0" d="M218.6,187.3H76.3c-5.4,0-9.7-4.4-9.7-9.7v0c0-5.4,4.4-9.7,9.7-9.7h142.2c5.4,0,9.7,4.4,9.7,9.7v0
 C228.3,182.9,223.9,187.3,218.6,187.3z"/>
<path id="big-2" class="st0" d="M218.6,261.9H76.3c-5.4,0-9.7-4.4-9.7-9.7v0c0-5.4,4.4-9.7,9.7-9.7h142.2c5.4,0,9.7,4.4,9.7,9.7v0
 C228.3,257.6,223.9,261.9,218.6,261.9z"/>
<path id="big-3" class="st0" d="M218.6,224.8H76.3c-5.4,0-9.7-4.4-9.7-9.7v0c0-5.4,4.4-9.7,9.7-9.7h142.2c5.4,0,9.7,4.4,9.7,9.7v0
 C228.3,220.4,223.9,224.8,218.6,224.8z"/>
<path id="big-4" class="st0" d="M842.1,187.3H699.9c-5.4,0-9.7-4.4-9.7-9.7v0c0-5.4,4.4-9.7,9.7-9.7h142.2c5.4,0,9.7,4.4,9.7,9.7v0
 C851.9,182.9,847.5,187.3,842.1,187.3z"/>
<path id="big-5" class="st0" d="M842.1,261.9H699.9c-5.4,0-9.7-4.4-9.7-9.7v0c0-5.4,4.4-9.7,9.7-9.7h142.2c5.4,0,9.7,4.4,9.7,9.7v0
 C851.9,257.6,847.5,261.9,842.1,261.9z"/>
<path id="big-6" class="st0" d="M842.1,224.5H699.9c-5.4,0-9.7-4.4-9.7-9.7v0c0-5.4,4.4-9.7,9.7-9.7h142.2c5.4,0,9.7,4.4,9.7,9.7v0
 C851.9,220.1,847.5,224.5,842.1,224.5z"/>
<path id="small-1" class="st0" d="M692.4,392.8h-74.8c-3,0-5.4-2.4-5.4-5.4v0c0-3,2.4-5.4,5.4-5.4h74.8c3,0,5.4,2.4,5.4,5.4v0
 C697.9,390.3,695.4,392.8,692.4,392.8z"/>
<path id="small-2" class="st0" d="M652.1,414.5h-74.8c-3,0-5.4-2.4-5.4-5.4v0c0-3,2.4-5.4,5.4-5.4h74.8c3,0,5.4,2.4,5.4,5.4v0
 C657.5,412.1,655.1,414.5,652.1,414.5z"/>
<path id="small-3" class="st0" d="M310.2,395.7h-92.9c-2.5,0-4.5-2-4.5-4.5v0c0-2.5,2-4.5,4.5-4.5h92.9c2.5,0,4.5,2,4.5,4.5v0
 C314.7,393.7,312.7,395.7,310.2,395.7z"/>
<path id="small-4" class="st0" d="M353.7,413.7h-92.9c-2.5,0-4.5-2-4.5-4.5l0,0c0-2.5,2-4.5,4.5-4.5h92.9c2.5,0,4.5,2,4.5,4.5l0,0
 C358.2,411.6,356.2,413.7,353.7,413.7z"/>
 <circle class="st1" cx="488.1" cy="251.2" r="153"/>

</svg>
