<?xml version="1.0" encoding="utf-8"?>
<!-- Generator: Adobe Illustrator 22.1.0, SVG Export Plug-In . SVG Version: 6.00 Build 0)  -->
<svg version="1.1" id="Layer_1" xmlns="http://www.w3.org/2000/svg" xmlns:xlink="http://www.w3.org/1999/xlink" x="0px" y="0px"
	 viewBox="0 0 246 180" style="enable-background:new 0 0 246 180;" xml:space="preserve">
<style type="text/css">
	.st0{fill:#FFFFFF;}
</style>
<path class="st0" d="M176.7,108.3c0,0.5-0.2,1-0.6,1.4c-0.4,0.3-0.8,0.6-1.4,0.6h-47.2c-1.1,0-1.9,0.9-1.9,1.9c0,1.1,0.9,2,1.9,2h11
	c1.1,0,1.9,0.9,1.9,2c0,0.5-0.2,1-0.6,1.4c-0.3,0.3-0.8,0.6-1.4,0.6h-18.8c-0.2,0-0.4,0-0.6-0.1c-0.8-0.3-1.3-1-1.3-1.8v-7.8
	c0-1.1,0.9-2,1.9-2h55c0.3,0,0.6,0.1,0.9,0.2C176.2,106.9,176.7,107.6,176.7,108.3z"/>
<path class="st0" d="M157.7,20.6c0,1.2-0.5,2.2-1.2,3c-0.8,0.8-1.8,1.2-3,1.2h-16.7c-2.3,0-4.2,1.9-4.2,4.2c0,2.3,1.9,4.2,4.2,4.2
	h67.2c2.3,0,4.2,1.9,4.2,4.2c0,1.2-0.5,2.2-1.2,3c-0.8,0.8-1.8,1.2-3,1.2h-84c-2.3,0-4.2-1.9-4.2-4.2V20.6c0-2,1.4-3.7,3.2-4.1
	c0.3-0.1,0.6-0.1,1-0.1h33.5C155.8,16.4,157.7,18.2,157.7,20.6z"/>
<path class="st0" d="M180.2,41.6c-1.8-3-3.9-5.9-6.4-8.4h-37.1c-2.3,0-4.2-1.9-4.2-4.2c0-2.3,1.9-4.2,4.2-4.2l16.9-3.3
	c-9.5-5.3-12.4-5-26.6-5H76.8c-1.5,0-3,1.5-3,3.2V75h26c1.3,0,2.4,1.1,2.4,2.4c0,1.3-1,2.4-2.4,2.4h-26v77.8H58.5
	c-0.8,0-1.6,0.3-2.1,0.9c-0.5,0.6-0.9,1.3-0.9,2.1c0,1.7,1.3,3,3,3h67c0.8,0,1.6-0.3,2.1-0.9c0.5-0.5,0.9-1.3,0.9-2.1
	c0-1.6-1.3-3-3-3h-7.2V118h8.7c9.5,0-2.1-1.3,5.3-3.8h-4.9c-1.1,0-1.9-0.9-1.9-1.9c0-1.1,0.9-2,1.9-2h34.3c2.1-1.1,4.1-2.4,5.9-3.7
	c12.3-8.9,19.1-22.6,19.1-39.4C186.8,57.5,184.5,48.9,180.2,41.6z M129,79.8h-11.1V54.7H129c7.5,0,12.6,5.1,12.6,12.6
	C141.6,74.7,136.5,79.8,129,79.8z"/>
<path class="st0" d="M153,24.8h-33.2c-2.3,0-4.2-1.9-4.2-4.2v0c0-2.3,1.9-4.2,4.2-4.2H153c2.3,0,4.2,1.9,4.2,4.2v0
	C157.2,22.9,155.3,24.8,153,24.8z"/>
<path class="st0" d="M216.1,41.6h-46.6c-2.3,0-4.2-1.9-4.2-4.2v0c0-2.3,1.9-4.2,4.2-4.2h46.6c2.3,0,4.2,1.9,4.2,4.2v0
	C220.3,39.7,218.4,41.6,216.1,41.6z"/>
<path class="st0" d="M132.4,118.1h-19.7c-1.1,0-2-0.9-2-2v0c0-1.1,0.9-2,2-2h19.7c1.1,0,1.9,0.9,1.9,2l0,0
	C134.4,117.2,133.5,118.1,132.4,118.1z"/>
<path class="st0" d="M167.1,110.3h-19.7c-1.1,0-2-0.9-2-2l0,0c0-1.1,0.9-2,2-2h19.7c1.1,0,2,0.9,2,2l0,0
	C169,109.4,168.1,110.3,167.1,110.3z"/>
<path class="st0" d="M133.1,163.6h-30.6c-1.7,0-3-1.3-3-3v0c0-1.6,1.3-3,3-3h30.6c1.7,0,3,1.4,3,3v0
	C136.1,162.3,134.7,163.6,133.1,163.6z"/>
<path class="st0" d="M73.6,163.6H42.9c-1.7,0-3-1.3-3-3v0c0-1.6,1.3-3,3-3h30.6c1.6,0,3,1.4,3,3v0C76.6,162.3,75.2,163.6,73.6,163.6
	z"/>
</svg>
